<svg version="1.1" id="Layer_1" xmlns="http://www.w3.org/2000/svg" xmlns:xlink="http://www.w3.org/1999/xlink" x="0px" y="0px"
	 width="100%" viewBox="0 0 2500 1232" enable-background="new 0 0 2500 1232" xml:space="preserve">
<path fill="#FFFFFF" opacity="1.000000" stroke="none" 
	d="
M1471.000000,0.999999 
	C1814.313843,1.000000 2157.627686,1.000000 2500.970703,1.000000 
	C2500.970703,411.624023 2500.970703,822.248047 2500.970703,1232.936035 
	C1667.756470,1232.936035 834.512939,1232.936035 1.134681,1232.936035 
	C1.134681,822.446411 1.134681,411.892731 1.134681,1.000000 
	C341.368164,1.000000 681.736450,1.000000 1022.284729,1.281645 
	C1010.326416,3.299884 998.801575,6.909713 988.185974,13.112252 
	C977.705872,19.235649 967.307617,25.499399 956.885925,31.722467 
	C905.619934,62.334614 854.290466,92.841614 803.148193,123.659042 
	C792.095886,130.318954 781.722168,138.104919 770.755005,145.373215 
	C770.048218,145.933563 769.622314,146.492905 768.903320,147.199677 
	C767.697632,148.531891 766.784973,149.716675 765.890198,150.923264 
	C765.908081,150.945053 765.942688,150.901642 765.654053,150.995453 
	C764.906677,151.729416 764.448059,152.369537 763.668701,153.116333 
	C752.945129,166.090057 747.061890,180.853424 746.968506,197.328064 
	C746.679443,248.320404 746.677795,299.316742 747.054504,350.307922 
	C747.109863,357.798767 749.120544,365.497711 751.449585,372.705109 
	C757.118530,390.247559 769.842529,402.246429 784.042603,413.284637 
	C822.407166,443.106812 860.456177,473.335327 898.588013,503.456238 
	C941.299194,537.194519 983.935791,571.027344 1026.657104,604.752808 
	C1067.027710,636.622559 1107.383667,668.511780 1147.918335,700.172119 
	C1162.585449,711.628296 1177.278076,723.170410 1192.833618,733.334656 
	C1206.319824,742.146667 1221.866089,746.421326 1238.492432,747.812378 
	C1248.502686,747.827454 1258.191284,748.583984 1267.646362,747.428955 
	C1291.747803,744.484680 1312.407349,733.781921 1331.331543,718.653564 
	C1378.135132,681.237976 1425.381226,644.375977 1472.423706,607.258911 
	C1514.633789,573.954773 1556.819824,540.620361 1598.997437,507.275421 
	C1641.426758,473.731506 1683.901123,440.244049 1726.218140,406.558929 
	C1745.686279,391.062042 1755.223999,370.595978 1755.216431,345.686615 
	C1755.201782,298.039307 1755.404785,250.390533 1755.033447,202.746124 
	C1754.967041,194.228058 1753.406372,185.487656 1751.052368,177.275070 
	C1747.327026,164.278564 1740.052246,153.205505 1729.127686,144.833755 
	C1729.091553,144.864578 1729.130493,144.951355 1729.089600,144.643707 
	C1728.723877,144.097610 1728.399170,143.859146 1727.933594,143.326645 
	C1724.708618,140.780212 1721.797852,138.229004 1718.512451,136.323700 
	C1696.214966,123.392883 1673.857544,110.565277 1651.483643,97.766762 
	C1607.888550,72.829132 1564.301270,47.877533 1520.642334,23.052223 
	C1507.458008,15.555349 1494.984741,6.303926 1478.951172,4.590421 
	C1476.196167,3.171628 1473.598022,2.085813 1471.000000,0.999999 
M2406.852539,914.369080 
	C2398.740723,908.317200 2391.221924,901.171570 2382.417236,896.397827 
	C2338.021240,872.326416 2283.179199,883.011658 2250.067139,921.365784 
	C2220.612549,955.483276 2214.291260,995.486084 2220.759521,1038.377075 
	C2225.053223,1066.845825 2239.099365,1090.371948 2260.086914,1110.045410 
	C2298.908936,1146.436401 2361.829590,1150.453491 2403.098389,1112.782471 
	C2404.624512,1111.389282 2406.218750,1110.070557 2408.750000,1107.877808 
	C2408.750000,1117.052368 2408.750000,1124.899536 2408.750000,1132.693848 
	C2429.387695,1132.693848 2449.452393,1132.693848 2469.600342,1132.693848 
	C2469.600342,1051.663696 2469.600342,970.952271 2469.600342,890.202393 
	C2449.220703,890.202393 2429.133057,890.202393 2408.260986,890.202393 
	C2408.260986,898.213379 2408.260986,905.977478 2407.879395,914.131714 
	C2407.757080,914.266174 2407.634521,914.400696 2406.852539,914.369080 
M402.912109,1109.500000 
	C402.912109,1088.000732 403.037750,1066.500366 402.880402,1045.002319 
	C402.681610,1017.846069 402.601196,990.680786 401.771698,963.540771 
	C401.370331,950.407776 399.345581,937.277161 393.288605,925.310059 
	C382.047516,903.100708 363.560364,890.216919 339.447693,885.793030 
	C305.214966,879.512512 275.130463,887.956726 250.397751,913.089233 
	C246.360489,917.191833 242.823792,921.786987 238.788177,926.464600 
	C237.136383,923.804932 235.714172,921.419739 234.200836,919.093933 
	C225.129532,905.152039 213.168732,894.490356 197.374512,889.036316 
	C168.135574,878.939636 140.269226,883.087097 114.218697,899.149780 
	C106.690292,903.791870 100.133835,910.010315 92.736847,915.815979 
	C92.736847,907.265991 92.736847,898.743591 92.736847,890.209412 
	C71.885437,890.209412 51.627163,890.209412 31.232738,890.209412 
	C31.232738,971.206970 31.232738,1051.940918 31.232738,1132.759033 
	C51.725872,1132.759033 71.969078,1132.759033 92.716400,1132.759033 
	C92.716400,1130.551758 92.716423,1128.589111 92.716408,1126.626587 
	C92.716133,1094.127563 92.503410,1061.626587 92.818443,1029.130615 
	C92.947327,1015.835205 93.417877,1002.445496 95.151550,989.285522 
	C97.914856,968.309692 107.331108,951.169495 128.078247,942.865784 
	C146.816895,935.365967 170.618454,939.825317 180.160355,964.538818 
	C184.436142,975.613098 185.857437,987.148376 185.953629,998.799683 
	C186.303040,1041.127197 186.324432,1083.457275 186.467957,1125.786377 
	C186.475739,1128.079834 186.468964,1130.373169 186.468964,1132.802856 
	C207.267441,1132.802856 227.540741,1132.802856 248.251663,1132.802856 
	C248.251663,1130.830566 248.251602,1129.056885 248.251678,1127.283081 
	C248.253113,1093.450806 248.005600,1059.615723 248.380142,1025.787598 
	C248.527283,1012.497803 249.357834,999.128296 251.125504,985.962708 
	C254.320801,962.164062 269.333313,945.208557 291.418945,940.681885 
	C312.451385,936.371094 330.903778,944.916748 335.951752,966.226318 
	C338.766724,978.109436 340.538757,990.505493 340.712738,1002.699890 
	C341.304779,1044.190308 340.977325,1085.693848 341.000763,1127.192383 
	C341.001801,1128.978271 341.000946,1130.764160 341.000946,1132.712402 
	C361.834015,1132.712402 382.219086,1132.712402 402.912109,1132.712402 
	C402.912109,1125.109009 402.912109,1117.804443 402.912109,1109.500000 
M2107.768311,882.499939 
	C2107.768311,893.243164 2107.768311,903.986328 2107.768311,914.771179 
	C2106.951416,914.715393 2106.532715,914.817139 2106.344727,914.653748 
	C2104.713867,913.235840 2103.142822,911.749817 2101.520264,910.322205 
	C2084.525391,895.369629 2064.870605,885.979370 2042.270874,884.241516 
	C1994.836548,880.593872 1959.561523,900.902771 1935.161011,940.878418 
	C1923.078003,960.673950 1918.511108,982.733215 1917.724609,1005.748596 
	C1916.365112,1045.527832 1928.256226,1079.896484 1957.201294,1108.173340 
	C1996.289795,1146.359375 2060.718018,1151.134277 2102.832520,1112.233643 
	C2104.177490,1110.991455 2105.665771,1109.904297 2107.943848,1108.046265 
	C2107.943848,1117.180786 2107.943848,1124.919067 2107.943848,1132.763672 
	C2128.371826,1132.763672 2148.455566,1132.763672 2168.579102,1132.763672 
	C2168.579102,1020.513062 2168.579102,908.508850 2168.579102,796.644226 
	C2148.143555,796.644226 2128.095947,796.644226 2107.768311,796.644226 
	C2107.768311,825.208923 2107.768311,853.354370 2107.768311,882.499939 
M1516.901978,897.566895 
	C1477.102417,875.152710 1425.031128,879.529053 1390.159180,913.036743 
	C1389.431030,913.736389 1388.456299,914.179382 1386.758789,915.290405 
	C1386.758789,906.311340 1386.758789,898.263306 1386.758789,890.232544 
	C1366.237793,890.232544 1346.306030,890.232544 1326.343872,890.232544 
	C1326.343872,1000.838806 1326.343872,1111.168579 1326.343872,1221.417969 
	C1346.707642,1221.417969 1366.619507,1221.417969 1386.885376,1221.417969 
	C1386.885376,1202.425781 1386.885376,1183.786499 1386.885376,1165.147217 
	C1386.885376,1146.486084 1386.885376,1127.825073 1386.885376,1108.042480 
	C1389.734863,1110.495117 1391.475830,1112.007324 1393.231201,1113.502319 
	C1402.807251,1121.657593 1413.195801,1128.590454 1425.072998,1132.838257 
	C1467.841553,1148.133545 1514.558472,1135.320679 1544.819946,1100.855713 
	C1566.625610,1076.021240 1576.828369,1047.078247 1577.166504,1014.414551 
	C1577.676147,965.208679 1560.345947,925.019653 1516.901978,897.566895 
M532.243774,887.799744 
	C502.927673,896.001038 481.720978,914.617065 466.216461,940.089966 
	C454.172729,959.877014 449.299347,981.839478 448.393402,1004.820557 
	C446.772980,1045.925293 459.188110,1081.353149 489.684235,1109.958252 
	C527.594788,1145.517944 587.619812,1149.410400 626.934875,1117.583862 
	C630.477112,1114.716431 634.010193,1111.837646 638.336060,1108.323486 
	C638.336060,1117.092163 638.336060,1124.822144 638.336060,1132.621826 
	C659.005676,1132.621826 679.197205,1132.621826 699.401001,1132.621826 
	C699.401001,1051.651001 699.401001,971.062866 699.401001,890.351196 
	C678.982056,890.351196 658.801819,890.351196 637.939758,890.351196 
	C637.939758,898.714050 637.939758,906.693420 637.939758,915.595154 
	C607.456604,886.546692 572.615784,877.888184 532.243774,887.799744 
M1694.161865,1132.336182 
	C1736.087891,1146.584595 1773.591919,1139.112793 1806.994263,1107.851440 
	C1806.994263,1117.171021 1806.994263,1124.901611 1806.994263,1132.743530 
	C1827.484375,1132.743530 1847.557495,1132.743530 1867.803955,1132.743530 
	C1867.803955,1051.779175 1867.803955,971.074463 1867.803955,890.193420 
	C1847.452637,890.193420 1827.372070,890.193420 1806.636719,890.193420 
	C1806.636719,898.543701 1806.636719,906.675293 1806.636719,915.667847 
	C1804.340942,913.651184 1802.843994,912.369995 1801.383667,911.048279 
	C1777.910156,889.800964 1750.093872,880.909668 1718.966187,884.341431 
	C1676.578003,889.014771 1647.489624,913.083801 1629.254639,950.595032 
	C1616.652466,976.518921 1614.183228,1004.412415 1618.210693,1032.621460 
	C1624.894897,1079.436646 1649.952759,1112.837891 1694.161865,1132.336182 
M1120.636475,884.004150 
	C1099.099365,885.225830 1079.645142,892.234192 1062.624756,905.488464 
	C1034.604370,927.308838 1019.184509,956.265747 1015.239990,991.351013 
	C1010.164062,1036.499756 1020.548950,1076.445435 1054.350220,1108.907959 
	C1093.187744,1146.207642 1156.797852,1150.859253 1198.491089,1112.863647 
	C1200.020630,1111.469727 1201.666626,1110.203613 1204.072388,1108.199951 
	C1204.072388,1117.072754 1204.072388,1124.786743 1204.072388,1132.646851 
	C1224.712402,1132.646851 1244.908081,1132.646851 1264.935059,1132.646851 
	C1264.935059,1051.599854 1264.935059,970.911499 1264.935059,890.298950 
	C1244.490967,890.298950 1224.428467,890.298950 1203.786865,890.298950 
	C1203.786865,898.658936 1203.786865,906.675598 1203.786865,915.761230 
	C1180.299316,893.000122 1153.334595,882.157776 1120.636475,884.004150 
M781.050415,1004.527954 
	C795.400513,1039.480469 809.660156,1074.470825 824.223816,1109.334229 
	C825.902649,1113.353271 825.551941,1116.417847 823.825134,1120.083252 
	C808.643494,1152.309204 793.576782,1184.589233 778.489441,1216.859497 
	C777.821655,1218.287842 777.283386,1219.776733 776.466980,1221.768921 
	C797.388062,1221.768921 817.515991,1221.851318 837.639526,1221.592773 
	C839.055603,1221.574463 840.996765,1219.294556 841.758423,1217.636597 
	C891.315857,1109.758545 940.777344,1001.836365 990.234009,893.911865 
	C990.749878,892.786255 991.089233,891.579834 991.674927,889.956909 
	C971.963318,889.956909 952.815613,890.074097 933.671753,889.856873 
	C929.898987,889.814026 928.219055,891.126709 926.716370,894.438354 
	C905.320007,941.590210 883.783203,988.678162 862.270142,1035.776978 
	C861.568970,1037.312012 860.758850,1038.797485 859.658325,1040.984009 
	C858.571960,1038.522949 857.871277,1037.018921 857.237244,1035.487305 
	C837.814880,988.572205 818.360718,941.670166 799.058533,894.705688 
	C797.588867,891.129761 795.870544,889.776001 791.847107,889.842407 
	C775.187988,890.117615 758.521729,889.957214 741.858093,889.956848 
	C739.452698,889.956848 737.047363,889.956909 734.007263,889.956909 
	C749.809326,928.424561 765.293457,966.118286 781.050415,1004.527954 
M570.588440,633.962646 
	C565.394592,623.941467 557.192017,617.549866 546.511658,614.301697 
	C534.503296,610.649658 522.252319,610.495789 509.898956,612.073669 
	C486.323425,615.084839 470.082092,631.040710 469.125885,654.074341 
	C468.263428,674.849487 468.429169,695.709473 469.158234,716.496399 
	C469.847595,736.151123 481.699432,749.942078 500.541351,755.015869 
	C517.673523,759.629333 534.901855,758.254028 552.058655,755.328552 
	C559.482422,754.062805 566.761292,751.947815 574.349976,750.161133 
	C573.095703,742.779114 572.022156,736.460571 570.880432,729.740845 
	C567.894592,730.476868 565.507446,731.097656 563.105164,731.652466 
	C547.785889,735.190247 532.324646,737.378540 516.563477,735.943970 
	C508.121735,735.175720 500.227814,732.706177 496.448364,724.287170 
	C492.174530,714.766846 493.001038,704.562561 493.400177,693.850708 
	C521.491882,693.850708 549.040283,693.850708 576.546570,693.850708 
	C576.546570,681.919128 577.249390,670.546021 576.314270,659.309143 
	C575.621948,650.990845 572.798523,642.849976 570.588440,633.962646 
M611.426392,666.829773 
	C612.822144,678.463196 620.014221,685.146484 630.450806,689.000977 
	C633.568237,690.152222 636.728455,691.209595 639.920166,692.133728 
	C649.335571,694.859680 658.824585,697.341309 668.191101,700.222839 
	C674.696533,702.224243 677.754456,707.051208 677.815491,713.807312 
	C677.833557,715.806396 677.872559,717.807129 677.818481,719.804749 
	C677.524536,730.673035 673.243408,735.826843 662.369324,735.792542 
	C649.782288,735.752930 637.187134,734.493774 624.622070,733.445557 
	C620.425537,733.095398 616.310913,731.764465 611.972900,730.842346 
	C611.002747,736.508850 610.334351,741.632202 609.192688,746.647888 
	C608.443604,749.938599 609.829529,751.252625 612.656189,751.848938 
	C620.132446,753.425781 627.555725,755.387695 635.104797,756.457397 
	C650.872253,758.691650 666.655701,759.083618 682.098755,754.177979 
	C692.550964,750.857849 699.371338,743.771484 700.754272,732.889526 
	C701.921692,723.703430 702.043457,714.327087 701.899231,705.046265 
	C701.723816,693.762329 696.161499,685.614624 685.307495,681.981567 
	C674.284790,678.292175 663.089600,675.102295 651.912354,671.894409 
	C637.148804,667.657288 634.635742,664.352966 635.029785,648.873169 
	C635.033997,648.706543 635.033447,648.539856 635.039551,648.373352 
	C635.417603,638.101440 639.262451,633.653259 649.573181,633.132324 
	C657.862061,632.713501 666.223328,633.007568 674.514221,633.559204 
	C682.078491,634.062439 689.591553,635.336670 697.537354,636.321960 
	C698.034973,630.538208 698.346008,625.245605 698.995789,619.994995 
	C699.390137,616.807861 698.206726,615.595947 695.144897,615.004883 
	C677.883972,611.672607 660.558472,610.067322 642.997192,612.085205 
	C623.451355,614.331055 612.161621,624.205688 611.052673,641.032471 
	C610.507263,649.306519 611.148743,657.658752 611.426392,666.829773 
M58.234863,735.442383 
	C49.947048,734.015015 41.659233,732.587585 33.052433,731.105286 
	C32.254597,736.174683 31.870964,741.184937 30.585558,745.952026 
	C29.587101,749.655029 30.613642,751.301819 34.084087,751.839111 
	C47.362324,753.895325 60.595440,756.901855 73.947578,757.600403 
	C83.557121,758.103149 93.527176,756.335205 102.976318,754.074768 
	C113.956490,751.448181 120.901634,743.640625 121.980942,732.207214 
	C122.944809,721.996521 123.249077,711.633911 122.705887,701.398804 
	C122.264473,693.081543 117.371506,686.797852 109.618141,683.295593 
	C105.233414,681.315002 100.731102,679.501099 96.131142,678.110352 
	C86.751404,675.274475 77.180290,673.054077 67.855911,670.057678 
	C58.947277,667.195007 56.622822,663.625916 56.210155,654.252869 
	C56.122318,652.257812 56.128773,650.251038 56.227585,648.256470 
	C56.736004,637.993652 60.633404,633.586121 70.864777,633.133057 
	C79.324997,632.758484 87.848038,633.048523 96.306129,633.606506 
	C103.704750,634.094604 111.051704,635.365967 118.761261,636.333923 
	C119.250313,630.347717 119.887497,624.741028 120.030479,619.121704 
	C120.062706,617.855164 118.562622,615.622009 117.446205,615.391479 
	C97.258369,611.221863 76.925301,609.052368 56.514591,613.558044 
	C43.223942,616.491943 34.160881,624.481506 32.820499,638.440735 
	C31.874895,648.288635 32.330616,658.358215 33.089119,668.257751 
	C33.835918,678.004578 40.319920,683.997681 48.862087,687.844788 
	C51.733902,689.138123 54.740723,690.186340 57.765572,691.075256 
	C67.969048,694.073669 78.240021,696.845093 88.421112,699.915710 
	C93.821823,701.544617 98.146393,704.697205 98.653137,710.834167 
	C99.020813,715.286865 99.002769,719.830566 98.566734,724.275818 
	C97.981201,730.245300 94.454498,734.522827 88.464630,734.949158 
	C78.723892,735.642395 68.916901,735.404724 58.234863,735.442383 
M145.911469,626.454712 
	C145.911469,629.076660 145.911469,631.698608 145.911469,635.071228 
	C154.441742,635.071228 162.468033,635.071228 170.748581,635.071228 
	C170.748581,640.809998 170.737442,645.792908 170.750427,650.775818 
	C170.820343,677.604126 170.678665,704.435791 171.082520,731.259094 
	C171.233597,741.293335 175.118530,750.226807 185.070190,754.190186 
	C201.862030,760.877991 218.589600,758.064575 235.488205,752.697327 
	C234.405273,746.096985 233.417572,740.077026 232.367004,733.674011 
	C226.286530,734.654968 220.608551,735.677185 214.898865,736.471436 
	C199.950150,738.551086 195.352585,734.540405 195.345169,719.517578 
	C195.332169,693.187012 195.341049,666.856506 195.340775,640.525940 
	C195.340744,638.762390 195.340759,636.998779 195.340759,634.792358 
	C208.326874,634.792358 220.589401,634.792358 233.214706,634.792358 
	C233.861862,627.699707 234.470749,621.026306 235.118347,613.928711 
	C221.531525,613.928711 208.751450,613.928711 195.274811,613.928711 
	C195.274811,601.197083 195.274811,588.808533 195.274811,575.946777 
	C188.467010,576.947327 182.437836,578.242493 176.353775,578.597778 
	C171.519379,578.880066 170.400101,580.707825 170.604340,585.329712 
	C171.020615,594.749939 170.728958,604.201477 170.728958,614.107361 
	C162.153778,614.107361 154.232147,614.107361 145.911438,614.107361 
	C145.911438,618.213562 145.911438,621.843628 145.911469,626.454712 
M363.381439,633.500061 
	C363.381439,606.908691 363.381439,580.317322 363.381439,553.223083 
	C354.819946,554.433594 346.993805,555.540161 339.044647,556.664124 
	C339.044647,622.917236 339.044647,688.765625 339.044647,754.697021 
	C347.274658,754.697021 355.179626,754.697021 363.381805,754.697021 
	C363.381805,714.414124 363.381805,674.457092 363.381439,633.500061 
M399.347443,640.815491 
	C389.856628,654.089844 380.442230,667.420105 370.807892,680.589417 
	C368.970428,683.101013 369.148376,684.731140 370.887299,687.116638 
	C386.681488,708.784119 402.342072,730.548950 418.124725,752.224854 
	C418.997070,753.422913 420.584534,754.842773 421.872467,754.876221 
	C430.777924,755.107483 439.692261,754.998047 449.415527,754.998047 
	C448.105133,753.032898 447.357269,751.802979 446.505402,750.649902 
	C431.265656,730.020752 416.079041,709.351746 400.699677,688.827148 
	C398.105499,685.364990 397.340240,683.044617 400.347443,679.051147 
	C412.165894,663.356689 423.474579,647.278137 434.959412,631.332764 
	C438.901520,625.859619 442.805298,620.358887 447.332581,614.022583 
	C438.134155,614.022583 430.025208,613.835083 421.936829,614.160217 
	C420.021912,614.237244 417.571747,615.577087 416.401001,617.119995 
	C410.665894,624.678528 405.279968,632.501953 399.347443,640.815491 
M268.747955,617.659973 
	C268.747955,663.342651 268.747955,709.025330 268.747955,754.573242 
	C277.402771,754.573242 285.272797,754.573242 293.047546,754.573242 
	C293.047546,707.610657 293.047546,661.082336 293.047546,614.038452 
	C285.435455,614.038452 278.152893,613.963745 270.877258,614.154358 
	C270.153107,614.173340 269.471283,615.808289 268.747955,617.659973 
M288.413940,592.114868 
	C289.993866,592.030884 291.573792,591.946960 292.992432,591.871582 
	C292.992432,579.877869 292.992432,568.519653 292.992432,557.061035 
	C284.806335,557.061035 277.067688,557.061035 269.138794,557.061035 
	C269.138794,568.820251 269.138794,580.315918 269.138794,592.116211 
	C275.501129,592.116211 281.463776,592.116211 288.413940,592.114868 
z"/>
<path fill="#1D95E6" opacity="1.000000" stroke="none" 
	d="
M765.872314,150.901459 
	C766.784973,149.716675 767.697632,148.531891 769.178345,147.154388 
	C770.176270,146.431839 770.606018,145.902023 771.035828,145.372192 
	C781.722168,138.104919 792.095886,130.318954 803.148193,123.659042 
	C854.290466,92.841614 905.619934,62.334614 956.885925,31.722467 
	C967.307617,25.499399 977.705872,19.235649 988.185974,13.112252 
	C998.801575,6.909713 1010.326416,3.299884 1022.732361,1.281645 
	C1026.692871,1.000000 1030.385864,1.000000 1034.545166,1.331687 
	C1035.022095,2.105572 1035.032471,2.547769 1035.028931,3.459615 
	C1035.015015,77.765099 1035.015015,151.600937 1035.015015,225.039032 
	C1037.481689,225.972168 1039.246216,226.639664 1040.548950,227.342834 
	C1022.098328,226.608932 1005.033752,230.048660 989.266052,238.918030 
	C981.158508,243.478516 973.260803,248.411652 965.257385,253.157990 
	C947.269592,263.825409 929.275085,274.481323 910.912292,285.085571 
	C909.346497,284.464661 907.992371,284.101959 906.981934,283.303955 
	C898.406921,276.531799 889.933228,269.631470 881.354919,262.863678 
	C866.549194,251.182709 851.717712,239.533936 836.845764,227.937454 
	C821.597412,216.047409 805.582947,205.022522 791.219604,192.150742 
	C778.933044,181.140152 767.921387,168.333603 770.455139,149.339462 
	C768.866821,149.880814 767.369568,150.391144 765.872314,150.901459 
z"/>
<path fill="#1D95E6" opacity="1.000000" stroke="none" 
	d="
M1449.000000,1.000006 
	C1451.042358,1.000000 1453.084595,1.000000 1455.565674,1.468655 
	C1456.015747,76.618851 1456.026978,151.300400 1455.607178,226.003265 
	C1444.616089,227.139755 1433.926025,227.724045 1424.278320,232.870132 
	C1422.379761,233.882751 1420.727539,235.356873 1418.723633,236.796570 
	C1418.102051,237.063293 1417.718628,237.151627 1416.940186,237.172638 
	C1414.016602,236.829300 1412.089355,237.400192 1411.640259,240.617828 
	C1410.971802,240.958313 1410.557007,241.090103 1409.919189,241.225418 
	C1409.385254,241.338181 1409.203125,241.555450 1409.116699,241.979401 
	C1409.083374,242.078110 1408.876709,242.104431 1408.514160,242.064926 
	C1406.423706,243.286575 1404.695557,244.547729 1402.948730,245.889374 
	C1402.929810,245.969864 1402.768921,245.932281 1402.413086,245.941315 
	C1400.461304,247.050598 1398.865356,248.150864 1397.237061,249.251816 
	C1397.204590,249.252487 1397.203735,249.317368 1396.853516,249.253845 
	C1395.361816,250.105484 1394.220215,251.020660 1393.066284,251.999451 
	C1393.053833,252.063049 1392.924316,252.064301 1392.556519,252.041107 
	C1390.435303,253.289276 1388.681885,254.560638 1386.928223,255.895081 
	C1386.927979,255.958160 1386.804199,255.933853 1386.642334,255.990051 
	C1386.269409,256.157410 1386.118896,256.323608 1385.737793,256.759796 
	C1360.808960,272.384155 1336.349121,288.088043 1311.470215,303.097046 
	C1295.515503,312.722290 1278.111816,318.617432 1258.777832,319.170563 
	C1256.384521,318.952698 1254.445801,318.829010 1252.297974,318.691956 
	C1252.297974,243.705963 1252.297974,169.141632 1252.297974,94.622307 
	C1254.032471,94.200333 1255.461548,93.852684 1257.289307,93.365204 
	C1258.812012,93.218246 1259.936157,93.211113 1261.143677,93.339546 
	C1261.227173,93.475113 1261.658691,93.513023 1261.658691,93.513023 
	C1261.658691,93.513023 1261.935669,93.148903 1262.350830,93.062958 
	C1282.078491,90.735893 1299.864380,84.312073 1316.312622,73.918015 
	C1341.477051,58.015884 1366.691895,42.190830 1392.031128,26.569542 
	C1404.590576,18.826900 1416.493286,9.755882 1430.992310,5.623816 
	C1436.950195,3.925877 1442.994873,2.532122 1449.000000,1.000006 
z"/>
<path fill="#FDFEFE" opacity="1.000000" stroke="none" 
	d="
M1448.531372,1.000006 
	C1442.994873,2.532122 1436.950195,3.925877 1430.992310,5.623816 
	C1416.493286,9.755882 1404.590576,18.826900 1392.031128,26.569542 
	C1366.691895,42.190830 1341.477051,58.015884 1316.312622,73.918015 
	C1299.864380,84.312073 1282.078491,90.735893 1262.127808,93.003021 
	C1261.489624,93.029030 1261.060181,93.203972 1261.060181,93.203979 
	C1259.936157,93.211113 1258.812012,93.218246 1256.844849,93.246796 
	C1237.558472,94.018005 1219.697388,91.370300 1202.750488,83.815445 
	C1196.730225,81.131653 1190.898071,78.025681 1184.815918,74.861847 
	C1184.099731,74.419693 1183.547485,74.228149 1182.826172,73.743286 
	C1179.798584,71.938766 1176.940308,70.427551 1174.069092,68.954140 
	C1174.056274,68.991936 1174.062866,68.916359 1173.919189,68.616943 
	C1172.200195,67.510445 1170.624756,66.703354 1168.894531,65.643448 
	C1168.180664,65.224937 1167.621582,65.059242 1166.893555,64.607635 
	C1165.560791,63.777992 1164.396851,63.234257 1163.127686,62.848228 
	C1163.022583,63.005936 1163.241211,62.694515 1163.117188,62.389236 
	C1157.666626,59.043560 1152.340088,56.003166 1146.921143,52.851345 
	C1146.828735,52.739918 1146.539551,52.757076 1146.321533,52.469940 
	C1143.781738,51.042477 1141.459961,49.902142 1139.104004,48.878307 
	C1139.069946,48.994808 1139.164917,48.771111 1139.008057,48.476120 
	C1132.675781,44.655083 1126.500366,41.129040 1120.161011,37.630962 
	C1119.996948,37.658932 1120.321289,37.577110 1120.179199,37.285820 
	C1110.693848,31.653269 1101.350708,26.312008 1091.904663,20.853615 
	C1091.801880,20.736485 1091.491577,20.707697 1091.322021,20.403633 
	C1084.074707,16.225220 1077.264771,11.697738 1069.846191,8.653717 
	C1061.861694,5.377474 1053.306274,3.492159 1045.000000,0.999998 
	C1179.354248,1.000000 1313.708496,1.000000 1448.531372,1.000006 
z"/>
<path fill="#32B3F8" opacity="1.000000" stroke="none" 
	d="
M1456.038208,225.981934 
	C1456.026978,151.300400 1456.015747,76.618851 1456.002197,1.468655 
	C1460.689331,1.000000 1465.378540,1.000000 1470.533936,0.999999 
	C1473.598022,2.085813 1476.196167,3.171628 1478.651978,4.710788 
	C1476.206543,5.078074 1473.901978,5.017807 1471.600464,4.898420 
	C1469.465576,4.787680 1467.177124,5.062791 1465.230835,4.382423 
	C1459.674683,2.440137 1458.001099,3.387330 1458.000977,9.140356 
	C1457.999756,81.419785 1458.006714,153.699203 1457.682251,225.985077 
	C1456.914795,225.988327 1456.476440,225.985138 1456.038208,225.981934 
z"/>
<path fill="#35B3F5" opacity="1.000000" stroke="none" 
	d="
M1044.545898,0.999998 
	C1053.306274,3.492159 1061.861694,5.377474 1069.846191,8.653717 
	C1077.264771,11.697738 1084.074707,16.225220 1090.888062,20.489315 
	C1088.896362,20.547035 1086.962280,20.603678 1085.478516,19.814156 
	C1079.742676,16.762140 1074.159790,13.423359 1068.502441,10.222579 
	C1058.103638,4.339218 1046.763550,2.776436 1035.042969,2.989966 
	C1035.032471,2.547769 1035.022095,2.105572 1035.005859,1.331687 
	C1038.030640,1.000000 1041.061157,1.000000 1044.545898,0.999998 
z"/>
<path fill="#1BB3F5" opacity="1.000000" stroke="none" 
	d="
M765.890198,150.923248 
	C767.369568,150.391144 768.866821,149.880814 770.455139,149.339462 
	C767.921387,168.333603 778.933044,181.140152 791.219604,192.150742 
	C805.582947,205.022522 821.597412,216.047409 836.845764,227.937454 
	C851.717712,239.533936 866.549194,251.182709 881.354919,262.863678 
	C889.933228,269.631470 898.406921,276.531799 906.981934,283.303955 
	C907.992371,284.101959 909.346497,284.464661 910.875183,285.425659 
	C912.221558,287.032135 913.061157,288.460480 914.272339,289.419586 
	C935.515808,306.242126 956.811707,322.998383 978.082092,339.787048 
	C1015.930115,369.660309 1053.773682,399.539246 1091.609375,429.428101 
	C1119.269775,451.278992 1147.005371,473.036346 1174.534790,495.051239 
	C1192.750000,509.617554 1213.498657,518.112671 1236.322754,521.774414 
	C1241.440186,522.595398 1246.740234,522.277283 1251.964478,522.921875 
	C1251.978516,585.136414 1251.984131,646.912537 1251.990601,708.688721 
	C1251.991821,719.179016 1251.998901,729.669250 1252.000244,740.159546 
	C1252.001099,747.020142 1251.998169,746.966064 1244.890625,747.041626 
	C1242.613159,747.065857 1240.339722,747.458984 1238.064453,747.683289 
	C1221.866089,746.421326 1206.319824,742.146667 1192.833618,733.334656 
	C1177.278076,723.170410 1162.585449,711.628296 1147.918335,700.172119 
	C1107.383667,668.511780 1067.027710,636.622559 1026.657104,604.752808 
	C983.935791,571.027344 941.299194,537.194519 898.588013,503.456238 
	C860.456177,473.335327 822.407166,443.106812 784.042603,413.284637 
	C769.842529,402.246429 757.118530,390.247559 751.449585,372.705109 
	C749.120544,365.497711 747.109863,357.798767 747.054504,350.307922 
	C746.677795,299.316742 746.679443,248.320404 746.968506,197.328064 
	C747.061890,180.853424 752.945129,166.090057 763.998901,153.070312 
	C765.080688,152.245621 765.511719,151.573639 765.942688,150.901642 
	C765.942688,150.901642 765.908081,150.945053 765.890198,150.923248 
z"/>
<path fill="#1D95E6" opacity="1.000000" stroke="none" 
	d="
M1238.492432,747.812378 
	C1240.339722,747.458984 1242.613159,747.065857 1244.890625,747.041626 
	C1251.998169,746.966064 1252.001099,747.020142 1252.000244,740.159546 
	C1251.998901,729.669250 1251.991821,719.179016 1251.990601,708.688721 
	C1251.984131,646.912537 1251.978516,585.136414 1252.419189,522.795959 
	C1281.393677,521.774353 1306.480469,512.099731 1328.680054,494.322510 
	C1350.637085,476.739319 1372.767822,459.372681 1394.844116,441.938477 
	C1454.275024,395.004303 1513.722046,348.090576 1573.146851,301.148468 
	C1578.192017,297.163025 1583.117676,293.026123 1588.103516,288.955658 
	C1586.660889,287.445740 1585.683960,286.423187 1585.115356,285.287567 
	C1591.386230,287.472687 1595.973389,285.644897 1599.981567,281.070496 
	C1601.703735,279.105072 1603.983398,277.615356 1606.065796,275.980774 
	C1622.319946,263.221832 1638.606445,250.504028 1654.843506,237.723206 
	C1663.427612,230.966278 1671.883545,224.045837 1680.484985,217.311050 
	C1694.437744,206.386002 1708.869507,195.969498 1719.228760,181.218842 
	C1723.856812,174.628754 1728.886719,168.134964 1729.070190,159.517014 
	C1729.174805,154.613876 1729.137329,149.707733 1729.163940,144.802933 
	C1740.052246,153.205505 1747.327026,164.278564 1751.052368,177.275070 
	C1753.406372,185.487656 1754.967041,194.228058 1755.033447,202.746124 
	C1755.404785,250.390533 1755.201782,298.039307 1755.216431,345.686615 
	C1755.223999,370.595978 1745.686279,391.062042 1726.218140,406.558929 
	C1683.901123,440.244049 1641.426758,473.731506 1598.997437,507.275421 
	C1556.819824,540.620361 1514.633789,573.954773 1472.423706,607.258911 
	C1425.381226,644.375977 1378.135132,681.237976 1331.331543,718.653564 
	C1312.407349,733.781921 1291.747803,744.484680 1267.646362,747.428955 
	C1258.191284,748.583984 1248.502686,747.827454 1238.492432,747.812378 
z"/>
<path fill="#020202" opacity="1.000000" stroke="none" 
	d="
M402.912109,1110.000000 
	C402.912109,1117.804443 402.912109,1125.109009 402.912109,1132.712402 
	C382.219086,1132.712402 361.834015,1132.712402 341.000946,1132.712402 
	C341.000946,1130.764160 341.001801,1128.978271 341.000763,1127.192383 
	C340.977325,1085.693848 341.304779,1044.190308 340.712738,1002.699890 
	C340.538757,990.505493 338.766724,978.109436 335.951752,966.226318 
	C330.903778,944.916748 312.451385,936.371094 291.418945,940.681885 
	C269.333313,945.208557 254.320801,962.164062 251.125504,985.962708 
	C249.357834,999.128296 248.527283,1012.497803 248.380142,1025.787598 
	C248.005600,1059.615723 248.253113,1093.450806 248.251678,1127.283081 
	C248.251602,1129.056885 248.251663,1130.830566 248.251663,1132.802856 
	C227.540741,1132.802856 207.267441,1132.802856 186.468964,1132.802856 
	C186.468964,1130.373169 186.475739,1128.079834 186.467957,1125.786377 
	C186.324432,1083.457275 186.303040,1041.127197 185.953629,998.799683 
	C185.857437,987.148376 184.436142,975.613098 180.160355,964.538818 
	C170.618454,939.825317 146.816895,935.365967 128.078247,942.865784 
	C107.331108,951.169495 97.914856,968.309692 95.151550,989.285522 
	C93.417877,1002.445496 92.947327,1015.835205 92.818443,1029.130615 
	C92.503410,1061.626587 92.716133,1094.127563 92.716408,1126.626587 
	C92.716423,1128.589111 92.716400,1130.551758 92.716400,1132.759033 
	C71.969078,1132.759033 51.725872,1132.759033 31.232738,1132.759033 
	C31.232738,1051.940918 31.232738,971.206970 31.232738,890.209412 
	C51.627163,890.209412 71.885437,890.209412 92.736847,890.209412 
	C92.736847,898.743591 92.736847,907.265991 92.736847,915.815979 
	C100.133835,910.010315 106.690292,903.791870 114.218697,899.149780 
	C140.269226,883.087097 168.135574,878.939636 197.374512,889.036316 
	C213.168732,894.490356 225.129532,905.152039 234.200836,919.093933 
	C235.714172,921.419739 237.136383,923.804932 238.788177,926.464600 
	C242.823792,921.786987 246.360489,917.191833 250.397751,913.089233 
	C275.130463,887.956726 305.214966,879.512512 339.447693,885.793030 
	C363.560364,890.216919 382.047516,903.100708 393.288605,925.310059 
	C399.345581,937.277161 401.370331,950.407776 401.771698,963.540771 
	C402.601196,990.680786 402.681610,1017.846069 402.880402,1045.002319 
	C403.037750,1066.500366 402.912109,1088.000732 402.912109,1110.000000 
z"/>
<path fill="#1BB3F6" opacity="1.000000" stroke="none" 
	d="
M1729.127686,144.833755 
	C1729.137329,149.707733 1729.174805,154.613876 1729.070190,159.517014 
	C1728.886719,168.134964 1723.856812,174.628754 1719.228760,181.218842 
	C1708.869507,195.969498 1694.437744,206.386002 1680.484985,217.311050 
	C1671.883545,224.045837 1663.427612,230.966278 1654.843506,237.723206 
	C1638.606445,250.504028 1622.319946,263.221832 1606.065796,275.980774 
	C1603.983398,277.615356 1601.703735,279.105072 1599.981567,281.070496 
	C1595.973389,285.644897 1591.386230,287.472687 1585.144775,285.217896 
	C1584.765869,285.261322 1584.913696,285.248535 1584.739014,284.915039 
	C1583.845581,284.429413 1583.126709,284.277222 1582.069336,284.157715 
	C1579.697754,283.073242 1577.640869,281.997559 1575.635864,280.832336 
	C1562.716064,273.324371 1549.807617,265.796875 1536.780518,257.959473 
	C1536.050293,257.457611 1535.434814,257.272034 1534.602173,257.071930 
	C1534.384888,257.057404 1534.027344,256.808868 1533.980469,256.466858 
	C1529.606201,253.775940 1525.278809,251.426987 1520.959717,249.042084 
	C1520.968018,249.006134 1520.924927,249.066483 1520.910156,248.716095 
	C1515.592529,245.585617 1510.289795,242.805496 1504.991943,240.013245 
	C1504.996826,240.001114 1504.975220,240.017166 1504.940430,239.668549 
	C1503.754517,238.463882 1502.671143,237.493134 1501.442261,236.769394 
	C1488.038452,228.875870 1473.183960,226.779099 1458.011475,225.978638 
	C1458.006714,153.699203 1457.999756,81.419785 1458.000977,9.140356 
	C1458.001099,3.387330 1459.674683,2.440137 1465.230835,4.382423 
	C1467.177124,5.062791 1469.465576,4.787680 1471.600464,4.898420 
	C1473.901978,5.017807 1476.206543,5.078074 1478.808960,5.043766 
	C1494.984741,6.303926 1507.458008,15.555349 1520.642334,23.052223 
	C1564.301270,47.877533 1607.888550,72.829132 1651.483643,97.766762 
	C1673.857544,110.565277 1696.214966,123.392883 1718.512451,136.323700 
	C1721.797852,138.229004 1724.708618,140.780212 1728.002075,143.624191 
	C1728.517822,144.460968 1728.824097,144.706146 1729.130493,144.951355 
	C1729.130493,144.951355 1729.091553,144.864578 1729.127686,144.833755 
z"/>
<path fill="#020202" opacity="1.000000" stroke="none" 
	d="
M2107.768311,881.999878 
	C2107.768311,853.354370 2107.768311,825.208923 2107.768311,796.644226 
	C2128.095947,796.644226 2148.143555,796.644226 2168.579102,796.644226 
	C2168.579102,908.508850 2168.579102,1020.513062 2168.579102,1132.763672 
	C2148.455566,1132.763672 2128.371826,1132.763672 2107.943848,1132.763672 
	C2107.943848,1124.919067 2107.943848,1117.180786 2107.943848,1108.046265 
	C2105.665771,1109.904297 2104.177490,1110.991455 2102.832520,1112.233643 
	C2060.718018,1151.134277 1996.289795,1146.359375 1957.201294,1108.173340 
	C1928.256226,1079.896484 1916.365112,1045.527832 1917.724609,1005.748596 
	C1918.511108,982.733215 1923.078003,960.673950 1935.161011,940.878418 
	C1959.561523,900.902771 1994.836548,880.593872 2042.270874,884.241516 
	C2064.870605,885.979370 2084.525391,895.369629 2101.520264,910.322205 
	C2103.142822,911.749817 2104.713867,913.235840 2106.344727,914.653748 
	C2106.532715,914.817139 2106.951416,914.715393 2107.768311,914.771179 
	C2107.768311,903.986328 2107.768311,893.243164 2107.768311,881.999878 
M2092.514648,1061.995483 
	C2095.012207,1058.675537 2097.830811,1055.547974 2099.952637,1052.003052 
	C2110.754639,1033.957886 2112.848633,1014.268250 2108.847900,994.139648 
	C2103.565918,967.565063 2087.946533,949.271240 2061.239014,942.750000 
	C2035.060547,936.357727 2011.944458,942.658569 1994.359741,964.075623 
	C1979.487427,982.189148 1976.350342,1003.495422 1980.067749,1025.844727 
	C1984.422729,1052.027832 1998.815186,1071.287964 2024.319092,1079.547974 
	C2049.777832,1087.793457 2072.952637,1082.080200 2092.514648,1061.995483 
z"/>
<path fill="#030303" opacity="1.000000" stroke="none" 
	d="
M1517.222168,897.747314 
	C1560.345947,925.019653 1577.676147,965.208679 1577.166504,1014.414551 
	C1576.828369,1047.078247 1566.625610,1076.021240 1544.819946,1100.855713 
	C1514.558472,1135.320679 1467.841553,1148.133545 1425.072998,1132.838257 
	C1413.195801,1128.590454 1402.807251,1121.657593 1393.231201,1113.502319 
	C1391.475830,1112.007324 1389.734863,1110.495117 1386.885376,1108.042480 
	C1386.885376,1127.825073 1386.885376,1146.486084 1386.885376,1165.147217 
	C1386.885376,1183.786499 1386.885376,1202.425781 1386.885376,1221.417969 
	C1366.619507,1221.417969 1346.707642,1221.417969 1326.343872,1221.417969 
	C1326.343872,1111.168579 1326.343872,1000.838806 1326.343872,890.232544 
	C1346.306030,890.232544 1366.237793,890.232544 1386.758789,890.232544 
	C1386.758789,898.263306 1386.758789,906.311340 1386.758789,915.290405 
	C1388.456299,914.179382 1389.431030,913.736389 1390.159180,913.036743 
	C1425.031128,879.529053 1477.102417,875.152710 1517.222168,897.747314 
M1409.710815,954.174866 
	C1405.479614,958.618652 1400.548218,962.585266 1397.138062,967.588684 
	C1382.026489,989.760498 1380.654785,1014.102356 1388.799927,1038.782471 
	C1396.459961,1061.993652 1412.975830,1076.919189 1437.190430,1081.565430 
	C1461.132080,1086.159424 1482.026855,1079.626221 1498.424438,1060.975830 
	C1514.167480,1043.069824 1518.227173,1021.770081 1515.123413,998.902832 
	C1511.801636,974.428650 1499.504028,955.461243 1476.403809,945.835266 
	C1453.383911,936.242615 1430.835938,938.678345 1409.710815,954.174866 
z"/>
<path fill="#030303" opacity="1.000000" stroke="none" 
	d="
M532.630981,887.670654 
	C572.615784,877.888184 607.456604,886.546692 637.939758,915.595154 
	C637.939758,906.693420 637.939758,898.714050 637.939758,890.351196 
	C658.801819,890.351196 678.982056,890.351196 699.401001,890.351196 
	C699.401001,971.062866 699.401001,1051.651001 699.401001,1132.621826 
	C679.197205,1132.621826 659.005676,1132.621826 638.336060,1132.621826 
	C638.336060,1124.822144 638.336060,1117.092163 638.336060,1108.323486 
	C634.010193,1111.837646 630.477112,1114.716431 626.934875,1117.583862 
	C587.619812,1149.410400 527.594788,1145.517944 489.684235,1109.958252 
	C459.188110,1081.353149 446.772980,1045.925293 448.393402,1004.820557 
	C449.299347,981.839478 454.172729,959.877014 466.216461,940.089966 
	C481.720978,914.617065 502.927673,896.001038 532.630981,887.670654 
M516.056885,1044.283691 
	C517.316162,1046.628540 518.483887,1049.028320 519.848450,1051.310181 
	C545.263916,1093.814331 606.790161,1093.574097 631.328918,1050.630493 
	C643.518921,1029.297485 644.521973,1006.323120 636.571228,983.543701 
	C628.368469,960.042053 611.239807,945.461060 586.441284,941.523193 
	C562.455566,937.714294 541.179443,943.901428 525.673889,963.426331 
	C506.245667,987.890930 505.263275,1015.136902 516.056885,1044.283691 
z"/>
<path fill="#020202" opacity="1.000000" stroke="none" 
	d="
M2408.260986,913.741638 
	C2408.260986,905.977478 2408.260986,898.213379 2408.260986,890.202393 
	C2429.133057,890.202393 2449.220703,890.202393 2469.600342,890.202393 
	C2469.600342,970.952271 2469.600342,1051.663696 2469.600342,1132.693848 
	C2449.452393,1132.693848 2429.387695,1132.693848 2408.750000,1132.693848 
	C2408.750000,1124.899536 2408.750000,1117.052368 2408.750000,1107.877808 
	C2406.218750,1110.070557 2404.624512,1111.389282 2403.098389,1112.782471 
	C2361.829590,1150.453491 2298.908936,1146.436401 2260.086914,1110.045410 
	C2239.099365,1090.371948 2225.053223,1066.845825 2220.759521,1038.377075 
	C2214.291260,995.486084 2220.612549,955.483276 2250.067139,921.365784 
	C2283.179199,883.011658 2338.021240,872.326416 2382.417236,896.397827 
	C2391.221924,901.171570 2398.740723,908.317200 2407.371094,914.646240 
	C2408.127686,914.881470 2408.365234,914.839539 2408.603027,914.797607 
	C2408.489014,914.445618 2408.375000,914.093628 2408.260986,913.741638 
M2279.884521,1005.638855 
	C2279.292236,1016.704529 2280.022705,1027.655396 2283.972656,1038.094482 
	C2293.531006,1063.354248 2311.091064,1079.516602 2338.432861,1082.408569 
	C2364.174072,1085.131348 2385.053467,1075.521606 2399.687988,1053.785156 
	C2410.325928,1037.984619 2412.380371,1020.176392 2410.997070,1001.681641 
	C2407.740723,958.140869 2365.394043,929.987000 2323.972412,943.841370 
	C2298.803223,952.259766 2281.779053,975.770142 2279.884521,1005.638855 
z"/>
<path fill="#020202" opacity="1.000000" stroke="none" 
	d="
M1693.797119,1132.198730 
	C1649.952759,1112.837891 1624.894897,1079.436646 1618.210693,1032.621460 
	C1614.183228,1004.412415 1616.652466,976.518921 1629.254639,950.595032 
	C1647.489624,913.083801 1676.578003,889.014771 1718.966187,884.341431 
	C1750.093872,880.909668 1777.910156,889.800964 1801.383667,911.048279 
	C1802.843994,912.369995 1804.340942,913.651184 1806.636719,915.667847 
	C1806.636719,906.675293 1806.636719,898.543701 1806.636719,890.193420 
	C1827.372070,890.193420 1847.452637,890.193420 1867.803955,890.193420 
	C1867.803955,971.074463 1867.803955,1051.779175 1867.803955,1132.743530 
	C1847.557495,1132.743530 1827.484375,1132.743530 1806.994263,1132.743530 
	C1806.994263,1124.901611 1806.994263,1117.171021 1806.994263,1107.851440 
	C1773.591919,1139.112793 1736.087891,1146.584595 1693.797119,1132.198730 
M1753.970581,941.190613 
	C1735.585449,939.124512 1718.457886,942.002869 1703.622803,953.955200 
	C1672.977295,978.645813 1668.706055,1029.523682 1694.719360,1060.097168 
	C1717.607910,1086.998047 1757.670044,1090.837524 1784.785400,1068.503418 
	C1802.042725,1054.289307 1808.967896,1035.230957 1809.643677,1013.417297 
	C1810.922241,972.151428 1785.092041,945.947754 1753.970581,941.190613 
z"/>
<path fill="#020202" opacity="1.000000" stroke="none" 
	d="
M1121.121216,884.000000 
	C1153.334595,882.157776 1180.299316,893.000122 1203.786865,915.761230 
	C1203.786865,906.675598 1203.786865,898.658936 1203.786865,890.298950 
	C1224.428467,890.298950 1244.490967,890.298950 1264.935059,890.298950 
	C1264.935059,970.911499 1264.935059,1051.599854 1264.935059,1132.646851 
	C1244.908081,1132.646851 1224.712402,1132.646851 1204.072388,1132.646851 
	C1204.072388,1124.786743 1204.072388,1117.072754 1204.072388,1108.199951 
	C1201.666626,1110.203613 1200.020630,1111.469727 1198.491089,1112.863647 
	C1156.797852,1150.859253 1093.187744,1146.207642 1054.350220,1108.907959 
	C1020.548950,1076.445435 1010.164062,1036.499756 1015.239990,991.351013 
	C1019.184509,956.265747 1034.604370,927.308838 1062.624756,905.488464 
	C1079.645142,892.234192 1099.099365,885.225830 1121.121216,884.000000 
M1106.492432,949.947266 
	C1103.334717,952.380005 1099.943604,954.565002 1097.056396,957.284912 
	C1074.809082,978.242920 1068.531616,1014.990967 1082.007446,1044.626343 
	C1100.913208,1086.203003 1155.180908,1096.183838 1187.125732,1063.833008 
	C1203.374878,1047.377319 1208.221924,1026.848755 1206.688965,1004.552795 
	C1202.627075,945.477600 1144.192261,927.340088 1106.492432,949.947266 
z"/>
<path fill="#030303" opacity="1.000000" stroke="none" 
	d="
M780.914001,1004.169922 
	C765.293457,966.118286 749.809326,928.424561 734.007263,889.956909 
	C737.047363,889.956909 739.452698,889.956848 741.858093,889.956848 
	C758.521729,889.957214 775.187988,890.117615 791.847107,889.842407 
	C795.870544,889.776001 797.588867,891.129761 799.058533,894.705688 
	C818.360718,941.670166 837.814880,988.572205 857.237244,1035.487305 
	C857.871277,1037.018921 858.571960,1038.522949 859.658325,1040.984009 
	C860.758850,1038.797485 861.568970,1037.312012 862.270142,1035.776978 
	C883.783203,988.678162 905.320007,941.590210 926.716370,894.438354 
	C928.219055,891.126709 929.898987,889.814026 933.671753,889.856873 
	C952.815613,890.074097 971.963318,889.956909 991.674927,889.956909 
	C991.089233,891.579834 990.749878,892.786255 990.234009,893.911865 
	C940.777344,1001.836365 891.315857,1109.758545 841.758423,1217.636597 
	C840.996765,1219.294556 839.055603,1221.574463 837.639526,1221.592773 
	C817.515991,1221.851318 797.388062,1221.768921 776.466980,1221.768921 
	C777.283386,1219.776733 777.821655,1218.287842 778.489441,1216.859497 
	C793.576782,1184.589233 808.643494,1152.309204 823.825134,1120.083252 
	C825.551941,1116.417847 825.902649,1113.353271 824.223816,1109.334229 
	C809.660156,1074.470825 795.400513,1039.480469 780.914001,1004.169922 
z"/>
<path fill="#5B5C5D" opacity="1.000000" stroke="none" 
	d="
M570.756470,634.296387 
	C572.798523,642.849976 575.621948,650.990845 576.314270,659.309143 
	C577.249390,670.546021 576.546570,681.919128 576.546570,693.850708 
	C549.040283,693.850708 521.491882,693.850708 493.400177,693.850708 
	C493.001038,704.562561 492.174530,714.766846 496.448364,724.287170 
	C500.227814,732.706177 508.121735,735.175720 516.563477,735.943970 
	C532.324646,737.378540 547.785889,735.190247 563.105164,731.652466 
	C565.507446,731.097656 567.894592,730.476868 570.880432,729.740845 
	C572.022156,736.460571 573.095703,742.779114 574.349976,750.161133 
	C566.761292,751.947815 559.482422,754.062805 552.058655,755.328552 
	C534.901855,758.254028 517.673523,759.629333 500.541351,755.015869 
	C481.699432,749.942078 469.847595,736.151123 469.158234,716.496399 
	C468.429169,695.709473 468.263428,674.849487 469.125885,654.074341 
	C470.082092,631.040710 486.323425,615.084839 509.898956,612.073669 
	C522.252319,610.495789 534.503296,610.649658 546.511658,614.301697 
	C557.192017,617.549866 565.394592,623.941467 570.756470,634.296387 
M549.033386,643.672363 
	C546.399170,638.706909 542.251282,635.548401 536.965454,633.940063 
	C527.976685,631.204956 518.929810,631.306152 509.955444,634.003418 
	C503.772614,635.861755 499.003418,639.653748 496.391968,645.609558 
	C492.548126,654.376099 492.877777,663.630737 493.344757,672.995605 
	C513.343628,672.995605 532.872620,672.995605 552.822144,672.995605 
	C552.701721,663.087585 553.728943,653.430664 549.033386,643.672363 
z"/>
<path fill="#5B5C5D" opacity="1.000000" stroke="none" 
	d="
M611.339722,666.402710 
	C611.148743,657.658752 610.507263,649.306519 611.052673,641.032471 
	C612.161621,624.205688 623.451355,614.331055 642.997192,612.085205 
	C660.558472,610.067322 677.883972,611.672607 695.144897,615.004883 
	C698.206726,615.595947 699.390137,616.807861 698.995789,619.994995 
	C698.346008,625.245605 698.034973,630.538208 697.537354,636.321960 
	C689.591553,635.336670 682.078491,634.062439 674.514221,633.559204 
	C666.223328,633.007568 657.862061,632.713501 649.573181,633.132324 
	C639.262451,633.653259 635.417603,638.101440 635.039551,648.373352 
	C635.033447,648.539856 635.033997,648.706543 635.029785,648.873169 
	C634.635742,664.352966 637.148804,667.657288 651.912354,671.894409 
	C663.089600,675.102295 674.284790,678.292175 685.307495,681.981567 
	C696.161499,685.614624 701.723816,693.762329 701.899231,705.046265 
	C702.043457,714.327087 701.921692,723.703430 700.754272,732.889526 
	C699.371338,743.771484 692.550964,750.857849 682.098755,754.177979 
	C666.655701,759.083618 650.872253,758.691650 635.104797,756.457397 
	C627.555725,755.387695 620.132446,753.425781 612.656189,751.848938 
	C609.829529,751.252625 608.443604,749.938599 609.192688,746.647888 
	C610.334351,741.632202 611.002747,736.508850 611.972900,730.842346 
	C616.310913,731.764465 620.425537,733.095398 624.622070,733.445557 
	C637.187134,734.493774 649.782288,735.752930 662.369324,735.792542 
	C673.243408,735.826843 677.524536,730.673035 677.818481,719.804749 
	C677.872559,717.807129 677.833557,715.806396 677.815491,713.807312 
	C677.754456,707.051208 674.696533,702.224243 668.191101,700.222839 
	C658.824585,697.341309 649.335571,694.859680 639.920166,692.133728 
	C636.728455,691.209595 633.568237,690.152222 630.450806,689.000977 
	C620.014221,685.146484 612.822144,678.463196 611.339722,666.402710 
z"/>
<path fill="#5A5B5D" opacity="1.000000" stroke="none" 
	d="
M58.686371,735.501160 
	C68.916901,735.404724 78.723892,735.642395 88.464630,734.949158 
	C94.454498,734.522827 97.981201,730.245300 98.566734,724.275818 
	C99.002769,719.830566 99.020813,715.286865 98.653137,710.834167 
	C98.146393,704.697205 93.821823,701.544617 88.421112,699.915710 
	C78.240021,696.845093 67.969048,694.073669 57.765572,691.075256 
	C54.740723,690.186340 51.733902,689.138123 48.862087,687.844788 
	C40.319920,683.997681 33.835918,678.004578 33.089119,668.257751 
	C32.330616,658.358215 31.874895,648.288635 32.820499,638.440735 
	C34.160881,624.481506 43.223942,616.491943 56.514591,613.558044 
	C76.925301,609.052368 97.258369,611.221863 117.446205,615.391479 
	C118.562622,615.622009 120.062706,617.855164 120.030479,619.121704 
	C119.887497,624.741028 119.250313,630.347717 118.761261,636.333923 
	C111.051704,635.365967 103.704750,634.094604 96.306129,633.606506 
	C87.848038,633.048523 79.324997,632.758484 70.864777,633.133057 
	C60.633404,633.586121 56.736004,637.993652 56.227585,648.256470 
	C56.128773,650.251038 56.122318,652.257812 56.210155,654.252869 
	C56.622822,663.625916 58.947277,667.195007 67.855911,670.057678 
	C77.180290,673.054077 86.751404,675.274475 96.131142,678.110352 
	C100.731102,679.501099 105.233414,681.315002 109.618141,683.295593 
	C117.371506,686.797852 122.264473,693.081543 122.705887,701.398804 
	C123.249077,711.633911 122.944809,721.996521 121.980942,732.207214 
	C120.901634,743.640625 113.956490,751.448181 102.976318,754.074768 
	C93.527176,756.335205 83.557121,758.103149 73.947578,757.600403 
	C60.595440,756.901855 47.362324,753.895325 34.084087,751.839111 
	C30.613642,751.301819 29.587101,749.655029 30.585558,745.952026 
	C31.870964,741.184937 32.254597,736.174683 33.052433,731.105286 
	C41.659233,732.587585 49.947048,734.015015 58.686371,735.501160 
z"/>
<path fill="#595A5C" opacity="1.000000" stroke="none" 
	d="
M145.911453,625.964233 
	C145.911438,621.843628 145.911438,618.213562 145.911438,614.107361 
	C154.232147,614.107361 162.153778,614.107361 170.728958,614.107361 
	C170.728958,604.201477 171.020615,594.749939 170.604340,585.329712 
	C170.400101,580.707825 171.519379,578.880066 176.353775,578.597778 
	C182.437836,578.242493 188.467010,576.947327 195.274811,575.946777 
	C195.274811,588.808533 195.274811,601.197083 195.274811,613.928711 
	C208.751450,613.928711 221.531525,613.928711 235.118347,613.928711 
	C234.470749,621.026306 233.861862,627.699707 233.214706,634.792358 
	C220.589401,634.792358 208.326874,634.792358 195.340759,634.792358 
	C195.340759,636.998779 195.340744,638.762390 195.340775,640.525940 
	C195.341049,666.856506 195.332169,693.187012 195.345169,719.517578 
	C195.352585,734.540405 199.950150,738.551086 214.898865,736.471436 
	C220.608551,735.677185 226.286530,734.654968 232.367004,733.674011 
	C233.417572,740.077026 234.405273,746.096985 235.488205,752.697327 
	C218.589600,758.064575 201.862030,760.877991 185.070190,754.190186 
	C175.118530,750.226807 171.233597,741.293335 171.082520,731.259094 
	C170.678665,704.435791 170.820343,677.604126 170.750427,650.775818 
	C170.737442,645.792908 170.748581,640.809998 170.748581,635.071228 
	C162.468033,635.071228 154.441742,635.071228 145.911469,635.071228 
	C145.911469,631.698608 145.911469,629.076660 145.911453,625.964233 
z"/>
<path fill="#595A5C" opacity="1.000000" stroke="none" 
	d="
M363.381622,634.000122 
	C363.381805,674.457092 363.381805,714.414124 363.381805,754.697021 
	C355.179626,754.697021 347.274658,754.697021 339.044647,754.697021 
	C339.044647,688.765625 339.044647,622.917236 339.044647,556.664124 
	C346.993805,555.540161 354.819946,554.433594 363.381439,553.223083 
	C363.381439,580.317322 363.381439,606.908691 363.381622,634.000122 
z"/>
<path fill="#5B5B5D" opacity="1.000000" stroke="none" 
	d="
M399.559021,640.523560 
	C405.279968,632.501953 410.665894,624.678528 416.401001,617.119995 
	C417.571747,615.577087 420.021912,614.237244 421.936829,614.160217 
	C430.025208,613.835083 438.134155,614.022583 447.332581,614.022583 
	C442.805298,620.358887 438.901520,625.859619 434.959412,631.332764 
	C423.474579,647.278137 412.165894,663.356689 400.347443,679.051147 
	C397.340240,683.044617 398.105499,685.364990 400.699677,688.827148 
	C416.079041,709.351746 431.265656,730.020752 446.505402,750.649902 
	C447.357269,751.802979 448.105133,753.032898 449.415527,754.998047 
	C439.692261,754.998047 430.777924,755.107483 421.872467,754.876221 
	C420.584534,754.842773 418.997070,753.422913 418.124725,752.224854 
	C402.342072,730.548950 386.681488,708.784119 370.887299,687.116638 
	C369.148376,684.731140 368.970428,683.101013 370.807892,680.589417 
	C380.442230,667.420105 389.856628,654.089844 399.559021,640.523560 
z"/>
<path fill="#59595B" opacity="1.000000" stroke="none" 
	d="
M268.758881,617.176636 
	C269.471283,615.808289 270.153107,614.173340 270.877258,614.154358 
	C278.152893,613.963745 285.435455,614.038452 293.047546,614.038452 
	C293.047546,661.082336 293.047546,707.610657 293.047546,754.573242 
	C285.272797,754.573242 277.402771,754.573242 268.747955,754.573242 
	C268.747955,709.025330 268.747955,663.342651 268.758881,617.176636 
z"/>
<path fill="#59595B" opacity="1.000000" stroke="none" 
	d="
M287.920166,592.115540 
	C281.463776,592.116211 275.501129,592.116211 269.138794,592.116211 
	C269.138794,580.315918 269.138794,568.820251 269.138794,557.061035 
	C277.067688,557.061035 284.806335,557.061035 292.992432,557.061035 
	C292.992432,568.519653 292.992432,579.877869 292.992432,591.871582 
	C291.573792,591.946960 289.993866,592.030884 287.920166,592.115540 
z"/>
<path fill="#1BB3F5" opacity="1.000000" stroke="none" 
	d="
M770.755005,145.373199 
	C770.606018,145.902023 770.176270,146.431839 769.471436,147.006958 
	C769.622314,146.492905 770.048218,145.933563 770.755005,145.373199 
z"/>
<path fill="#1D95E6" opacity="1.000000" stroke="none" 
	d="
M765.654053,150.995453 
	C765.511719,151.573639 765.080688,152.245621 764.319580,152.963654 
	C764.448059,152.369537 764.906677,151.729416 765.654053,150.995453 
z"/>
<path fill="#1D95E6" opacity="1.000000" stroke="none" 
	d="
M1729.089600,144.643707 
	C1728.824097,144.706146 1728.517822,144.460968 1728.142822,143.918228 
	C1728.399170,143.859146 1728.723877,144.097610 1729.089600,144.643707 
z"/>
<path fill="#FDFFFF" opacity="1.000000" stroke="none" 
	d="
M1536.895508,258.275787 
	C1549.807617,265.796875 1562.716064,273.324371 1575.635864,280.832336 
	C1577.640869,281.997559 1579.697754,283.073242 1582.286377,284.460541 
	C1583.532593,284.903320 1584.223145,285.075928 1584.913696,285.248535 
	C1584.913696,285.248535 1584.765869,285.261322 1584.736328,285.330994 
	C1585.683960,286.423187 1586.660889,287.445740 1588.103516,288.955658 
	C1583.117676,293.026123 1578.192017,297.163025 1573.146851,301.148468 
	C1513.722046,348.090576 1454.275024,395.004303 1394.844116,441.938477 
	C1372.767822,459.372681 1350.637085,476.739319 1328.680054,494.322510 
	C1306.480469,512.099731 1281.393677,521.774353 1252.411011,522.357666 
	C1246.740234,522.277283 1241.440186,522.595398 1236.322754,521.774414 
	C1213.498657,518.112671 1192.750000,509.617554 1174.534790,495.051239 
	C1147.005371,473.036346 1119.269775,451.278992 1091.609375,429.428101 
	C1053.773682,399.539246 1015.930115,369.660309 978.082092,339.787048 
	C956.811707,322.998383 935.515808,306.242126 914.272339,289.419586 
	C913.061157,288.460480 912.221558,287.032135 911.246155,285.482025 
	C929.275085,274.481323 947.269592,263.825409 965.257385,253.157990 
	C973.260803,248.411652 981.158508,243.478516 989.266052,238.918030 
	C1005.033752,230.048660 1022.098328,226.608932 1040.865234,227.564804 
	C1054.743286,228.930954 1067.083984,232.620148 1078.470825,239.225845 
	C1110.686157,257.914551 1142.994873,276.447784 1175.001221,295.488922 
	C1195.034668,307.407349 1215.451660,317.867950 1239.236084,319.468506 
	C1242.451904,319.684906 1245.711548,319.250732 1249.213623,319.433533 
	C1252.728394,319.587738 1255.980469,319.426239 1259.232544,319.264740 
	C1278.111816,318.617432 1295.515503,312.722290 1311.470215,303.097046 
	C1336.349121,288.088043 1360.808960,272.384155 1385.939453,256.786743 
	C1386.727539,256.472778 1386.851318,256.251160 1386.804199,255.933853 
	C1386.804199,255.933853 1386.927979,255.958160 1387.263916,255.874878 
	C1389.374634,254.549149 1391.149536,253.306717 1392.924316,252.064301 
	C1392.924316,252.064301 1393.053833,252.063049 1393.385498,251.963409 
	C1394.879272,251.014969 1396.041504,250.166183 1397.203735,249.317383 
	C1397.203735,249.317368 1397.204590,249.252487 1397.567871,249.218445 
	C1399.543701,248.100388 1401.156372,247.016357 1402.768921,245.932312 
	C1402.768921,245.932281 1402.929810,245.969864 1403.279785,245.883057 
	C1405.378662,244.565643 1407.127686,243.335037 1408.876709,242.104431 
	C1408.876709,242.104431 1409.083374,242.078110 1409.333008,241.967911 
	C1409.880493,241.744003 1410.067017,241.532074 1410.142090,241.221924 
	C1410.557007,241.090103 1410.971802,240.958313 1411.955322,240.608612 
	C1414.127686,239.340469 1415.731445,238.290237 1417.335083,237.239990 
	C1417.718628,237.151627 1418.102051,237.063293 1419.072021,236.779617 
	C1436.536621,228.696030 1454.348145,225.519211 1472.554321,229.192581 
	C1483.638062,231.428879 1494.186401,236.319077 1504.975220,240.017166 
	C1504.975220,240.017166 1504.996826,240.001114 1505.133789,240.319687 
	C1510.488892,243.447662 1515.706909,246.257065 1520.924927,249.066467 
	C1520.924927,249.066483 1520.968018,249.006134 1521.096680,249.348969 
	C1525.492676,252.064133 1529.760010,254.436493 1534.027344,256.808838 
	C1534.027344,256.808868 1534.384888,257.057404 1534.788330,257.321472 
	C1535.759766,257.815643 1536.327637,258.045715 1536.895508,258.275787 
z"/>
<path fill="#1BB3F5" opacity="1.000000" stroke="none" 
	d="
M1248.950806,319.117798 
	C1245.711548,319.250732 1242.451904,319.684906 1239.236084,319.468506 
	C1215.451660,317.867950 1195.034668,307.407349 1175.001221,295.488922 
	C1142.994873,276.447784 1110.686157,257.914551 1078.470825,239.225845 
	C1067.083984,232.620148 1054.743286,228.930954 1041.326904,227.529114 
	C1039.246216,226.639664 1037.481689,225.972168 1035.015015,225.039032 
	C1035.015015,151.600937 1035.015015,77.765099 1035.029053,3.459614 
	C1046.763550,2.776436 1058.103638,4.339218 1068.502441,10.222579 
	C1074.159790,13.423359 1079.742676,16.762140 1085.478516,19.814156 
	C1086.962280,20.603678 1088.896362,20.547035 1091.057617,20.793377 
	C1091.491577,20.707697 1091.801880,20.736485 1091.946045,21.203552 
	C1094.910645,24.084969 1097.731079,26.499317 1101.189575,29.459976 
	C1105.812988,28.384539 1109.761597,32.340492 1113.406006,35.509224 
	C1115.791748,37.583622 1117.564697,38.332947 1120.321289,37.577110 
	C1120.321289,37.577110 1119.996948,37.658932 1120.164062,37.997303 
	C1126.609009,41.814148 1132.886963,45.292622 1139.164917,48.771103 
	C1139.164917,48.771111 1139.069946,48.994808 1139.246582,49.220840 
	C1140.946045,52.376022 1143.198120,53.737526 1146.539551,52.757076 
	C1146.539551,52.757076 1146.828735,52.739918 1146.947998,53.214981 
	C1152.458496,56.691532 1157.849854,59.693020 1163.241211,62.694511 
	C1163.241211,62.694515 1163.022583,63.005936 1163.159790,63.189018 
	C1164.552124,63.879250 1165.807373,64.386391 1167.062500,64.893539 
	C1167.621582,65.059242 1168.180664,65.224937 1168.883545,66.044121 
	C1170.705933,67.437195 1172.384399,68.176781 1174.062866,68.916367 
	C1174.062866,68.916359 1174.056274,68.991936 1174.081299,69.305206 
	C1176.891968,71.448029 1178.557739,75.530624 1182.995361,74.036598 
	C1183.547485,74.228149 1184.099731,74.419693 1184.853882,75.205162 
	C1189.240234,78.841362 1193.130981,82.464882 1197.689575,84.765984 
	C1202.452637,87.170265 1207.827148,88.405006 1212.991943,89.959572 
	C1217.667969,91.366982 1222.356934,92.977264 1227.158936,93.650452 
	C1231.997314,94.328720 1237.000000,93.730499 1241.898071,94.111641 
	C1248.534912,94.628082 1249.994385,96.471085 1249.994629,103.255592 
	C1249.996582,171.175140 1250.015259,239.094711 1249.953735,307.014221 
	C1249.950073,311.049042 1249.300049,315.083282 1248.950806,319.117798 
M1097.588623,30.516680 
	C1097.588623,30.516680 1097.479370,30.581656 1097.588623,30.516680 
z"/>
<path fill="#35B3F5" opacity="1.000000" stroke="none" 
	d="
M1249.213623,319.433533 
	C1249.300049,315.083282 1249.950073,311.049042 1249.953735,307.014221 
	C1250.015259,239.094711 1249.996582,171.175140 1249.994629,103.255592 
	C1249.994385,96.471085 1248.534912,94.628082 1241.898071,94.111641 
	C1237.000000,93.730499 1231.997314,94.328720 1227.158936,93.650452 
	C1222.356934,92.977264 1217.667969,91.366982 1212.991943,89.959572 
	C1207.827148,88.405006 1202.452637,87.170265 1197.689575,84.765984 
	C1193.130981,82.464882 1189.240234,78.841362 1185.018066,75.455765 
	C1190.898071,78.025681 1196.730225,81.131653 1202.750488,83.815445 
	C1219.697388,91.370300 1237.558472,94.018005 1256.446045,93.386627 
	C1255.461548,93.852684 1254.032471,94.200333 1252.297974,94.622307 
	C1252.297974,169.141632 1252.297974,243.705963 1252.297974,318.691956 
	C1254.445801,318.829010 1256.384521,318.952698 1258.777832,319.170563 
	C1255.980469,319.426239 1252.728394,319.587738 1249.213623,319.433533 
z"/>
<path fill="#35B3F5" opacity="1.000000" stroke="none" 
	d="
M1504.940430,239.668549 
	C1494.186401,236.319077 1483.638062,231.428879 1472.554321,229.192581 
	C1454.348145,225.519211 1436.536621,228.696030 1419.310059,236.601227 
	C1420.727539,235.356873 1422.379761,233.882751 1424.278320,232.870132 
	C1433.926025,227.724045 1444.616089,227.139755 1455.607178,226.003265 
	C1456.476440,225.985138 1456.914795,225.988327 1457.682251,225.985077 
	C1473.183960,226.779099 1488.038452,228.875870 1501.442261,236.769394 
	C1502.671143,237.493134 1503.754517,238.463882 1504.940430,239.668549 
z"/>
<path fill="#35B3F5" opacity="1.000000" stroke="none" 
	d="
M1392.556519,252.041107 
	C1391.149536,253.306717 1389.374634,254.549149 1387.264160,255.811783 
	C1388.681885,254.560638 1390.435303,253.289276 1392.556519,252.041107 
z"/>
<path fill="#35B3F5" opacity="1.000000" stroke="none" 
	d="
M1408.514160,242.064926 
	C1407.127686,243.335037 1405.378662,244.565643 1403.298584,245.802582 
	C1404.695557,244.547729 1406.423706,243.286575 1408.514160,242.064926 
z"/>
<path fill="#35B3F5" opacity="1.000000" stroke="none" 
	d="
M1416.940186,237.172684 
	C1415.731445,238.290237 1414.127686,239.340469 1412.208984,240.399933 
	C1412.089355,237.400192 1414.016602,236.829300 1416.940186,237.172684 
z"/>
<path fill="#35B3F5" opacity="1.000000" stroke="none" 
	d="
M1402.413086,245.941330 
	C1401.156372,247.016357 1399.543701,248.100388 1397.600220,249.217773 
	C1398.865356,248.150864 1400.461304,247.050598 1402.413086,245.941330 
z"/>
<path fill="#35B3F5" opacity="1.000000" stroke="none" 
	d="
M1396.853516,249.253845 
	C1396.041504,250.166183 1394.879272,251.014969 1393.397949,251.899796 
	C1394.220215,251.020660 1395.361816,250.105484 1396.853516,249.253845 
z"/>
<path fill="#35B3F5" opacity="1.000000" stroke="none" 
	d="
M1261.143677,93.339539 
	C1261.060181,93.203972 1261.489624,93.029030 1261.712646,93.088966 
	C1261.935669,93.148903 1261.658691,93.513023 1261.658691,93.513023 
	C1261.658691,93.513023 1261.227173,93.475113 1261.143677,93.339539 
z"/>
<path fill="#35B3F5" opacity="1.000000" stroke="none" 
	d="
M1409.919189,241.225433 
	C1410.067017,241.532074 1409.880493,241.744003 1409.366211,241.869202 
	C1409.203125,241.555450 1409.385254,241.338181 1409.919189,241.225433 
z"/>
<path fill="#35B3F5" opacity="1.000000" stroke="none" 
	d="
M1386.642334,255.990051 
	C1386.851318,256.251160 1386.727539,256.472778 1386.230957,256.571777 
	C1386.118896,256.323608 1386.269409,256.157410 1386.642334,255.990051 
z"/>
<path fill="#35B3F5" opacity="1.000000" stroke="none" 
	d="
M1120.179199,37.285820 
	C1117.564697,38.332947 1115.791748,37.583622 1113.406006,35.509224 
	C1109.761597,32.340492 1105.812988,28.384539 1101.189575,29.459976 
	C1097.731079,26.499317 1094.910645,24.084969 1092.048828,21.320683 
	C1101.350708,26.312008 1110.693848,31.653269 1120.179199,37.285820 
z"/>
<path fill="#35B3F5" opacity="1.000000" stroke="none" 
	d="
M1139.008057,48.476112 
	C1132.886963,45.292622 1126.609009,41.814148 1120.328125,37.969334 
	C1126.500366,41.129040 1132.675781,44.655083 1139.008057,48.476112 
z"/>
<path fill="#35B3F5" opacity="1.000000" stroke="none" 
	d="
M1163.117188,62.389233 
	C1157.849854,59.693020 1152.458496,56.691532 1147.040283,53.326408 
	C1152.340088,56.003166 1157.666626,59.043560 1163.117188,62.389233 
z"/>
<path fill="#35B3F5" opacity="1.000000" stroke="none" 
	d="
M1182.826172,73.743286 
	C1178.557739,75.530624 1176.891968,71.448029 1174.094238,69.267410 
	C1176.940308,70.427551 1179.798584,71.938766 1182.826172,73.743286 
z"/>
<path fill="#35B3F5" opacity="1.000000" stroke="none" 
	d="
M1146.321533,52.469940 
	C1143.198120,53.737526 1140.946045,52.376022 1139.280640,49.104340 
	C1141.459961,49.902142 1143.781738,51.042477 1146.321533,52.469940 
z"/>
<path fill="#35B3F5" opacity="1.000000" stroke="none" 
	d="
M1173.919189,68.616943 
	C1172.384399,68.176781 1170.705933,67.437195 1169.038452,66.296936 
	C1170.624756,66.703354 1172.200195,67.510445 1173.919189,68.616943 
z"/>
<path fill="#35B3F5" opacity="1.000000" stroke="none" 
	d="
M1166.893555,64.607628 
	C1165.807373,64.386391 1164.552124,63.879250 1163.264893,63.031315 
	C1164.396851,63.234257 1165.560791,63.777992 1166.893555,64.607628 
z"/>
<path fill="#35B3F5" opacity="1.000000" stroke="none" 
	d="
M1520.910156,248.716095 
	C1515.706909,246.257065 1510.488892,243.447662 1505.128906,240.331818 
	C1510.289795,242.805496 1515.592529,245.585617 1520.910156,248.716095 
z"/>
<path fill="#35B3F5" opacity="1.000000" stroke="none" 
	d="
M1533.980469,256.466858 
	C1529.760010,254.436493 1525.492676,252.064133 1521.088379,249.384918 
	C1525.278809,251.426987 1529.606201,253.775940 1533.980469,256.466858 
z"/>
<path fill="#35B3F5" opacity="1.000000" stroke="none" 
	d="
M1536.780518,257.959473 
	C1536.327637,258.045715 1535.759766,257.815643 1535.005615,257.335999 
	C1535.434814,257.272034 1536.050293,257.457611 1536.780518,257.959473 
z"/>
<path fill="#1D95E6" opacity="1.000000" stroke="none" 
	d="
M1584.739014,284.915039 
	C1584.223145,285.075928 1583.532593,284.903320 1582.625000,284.427917 
	C1583.126709,284.277222 1583.845581,284.429413 1584.739014,284.915039 
z"/>
<path fill="#FEFEFE" opacity="1.000000" stroke="none" 
	d="
M2092.276367,1062.260742 
	C2072.952637,1082.080200 2049.777832,1087.793457 2024.319092,1079.547974 
	C1998.815186,1071.287964 1984.422729,1052.027832 1980.067749,1025.844727 
	C1976.350342,1003.495422 1979.487427,982.189148 1994.359741,964.075623 
	C2011.944458,942.658569 2035.060547,936.357727 2061.239014,942.750000 
	C2087.946533,949.271240 2103.565918,967.565063 2108.847900,994.139648 
	C2112.848633,1014.268250 2110.754639,1033.957886 2099.952637,1052.003052 
	C2097.830811,1055.547974 2095.012207,1058.675537 2092.276367,1062.260742 
z"/>
<path fill="#FDFDFD" opacity="1.000000" stroke="none" 
	d="
M1409.996094,953.959351 
	C1430.835938,938.678345 1453.383911,936.242615 1476.403809,945.835266 
	C1499.504028,955.461243 1511.801636,974.428650 1515.123413,998.902832 
	C1518.227173,1021.770081 1514.167480,1043.069824 1498.424438,1060.975830 
	C1482.026855,1079.626221 1461.132080,1086.159424 1437.190430,1081.565430 
	C1412.975830,1076.919189 1396.459961,1061.993652 1388.799927,1038.782471 
	C1380.654785,1014.102356 1382.026489,989.760498 1397.138062,967.588684 
	C1400.548218,962.585266 1405.479614,958.618652 1409.996094,953.959351 
z"/>
<path fill="#FEFEFE" opacity="1.000000" stroke="none" 
	d="
M515.955811,1043.915283 
	C505.263275,1015.136902 506.245667,987.890930 525.673889,963.426331 
	C541.179443,943.901428 562.455566,937.714294 586.441284,941.523193 
	C611.239807,945.461060 628.368469,960.042053 636.571228,983.543701 
	C644.521973,1006.323120 643.518921,1029.297485 631.328918,1050.630493 
	C606.790161,1093.574097 545.263916,1093.814331 519.848450,1051.310181 
	C518.483887,1049.028320 517.316162,1046.628540 515.955811,1043.915283 
z"/>
<path fill="#FEFEFE" opacity="1.000000" stroke="none" 
	d="
M2279.900879,1005.160217 
	C2281.779053,975.770142 2298.803223,952.259766 2323.972412,943.841370 
	C2365.394043,929.987000 2407.740723,958.140869 2410.997070,1001.681641 
	C2412.380371,1020.176392 2410.325928,1037.984619 2399.687988,1053.785156 
	C2385.053467,1075.521606 2364.174072,1085.131348 2338.432861,1082.408569 
	C2311.091064,1079.516602 2293.531006,1063.354248 2283.972656,1038.094482 
	C2280.022705,1027.655396 2279.292236,1016.704529 2279.900879,1005.160217 
z"/>
<path fill="#FFFFFF" opacity="1.000000" stroke="none" 
	d="
M2408.070312,913.936646 
	C2408.375000,914.093628 2408.489014,914.445618 2408.603027,914.797607 
	C2408.365234,914.839539 2408.127686,914.881470 2407.700928,914.729309 
	C2407.634521,914.400696 2407.757080,914.266174 2408.070312,913.936646 
z"/>
<path fill="#FDFDFD" opacity="1.000000" stroke="none" 
	d="
M1754.413452,941.270325 
	C1785.092041,945.947754 1810.922241,972.151428 1809.643677,1013.417297 
	C1808.967896,1035.230957 1802.042725,1054.289307 1784.785400,1068.503418 
	C1757.670044,1090.837524 1717.607910,1086.998047 1694.719360,1060.097168 
	C1668.706055,1029.523682 1672.977295,978.645813 1703.622803,953.955200 
	C1718.457886,942.002869 1735.585449,939.124512 1754.413452,941.270325 
z"/>
<path fill="#FDFDFD" opacity="1.000000" stroke="none" 
	d="
M1106.792114,949.735718 
	C1144.192261,927.340088 1202.627075,945.477600 1206.688965,1004.552795 
	C1208.221924,1026.848755 1203.374878,1047.377319 1187.125732,1063.833008 
	C1155.180908,1096.183838 1100.913208,1086.203003 1082.007446,1044.626343 
	C1068.531616,1014.990967 1074.809082,978.242920 1097.056396,957.284912 
	C1099.943604,954.565002 1103.334717,952.380005 1106.792114,949.735718 
z"/>
<path fill="#FDFDFD" opacity="1.000000" stroke="none" 
	d="
M549.185669,644.016052 
	C553.728943,653.430664 552.701721,663.087585 552.822144,672.995605 
	C532.872620,672.995605 513.343628,672.995605 493.344757,672.995605 
	C492.877777,663.630737 492.548126,654.376099 496.391968,645.609558 
	C499.003418,639.653748 503.772614,635.861755 509.955444,634.003418 
	C518.929810,631.306152 527.976685,631.204956 536.965454,633.940063 
	C542.251282,635.548401 546.399170,638.706909 549.185669,644.016052 
z"/>
<path fill="#35B3F5" opacity="1.000000" stroke="none" 
	d="
M1097.533936,30.549168 
	C1097.479370,30.581656 1097.588623,30.516680 1097.533936,30.549168 
z"/>
</svg>