<svg width="234" height="72" viewBox="0 0 234 72" fill="none" xmlns="http://www.w3.org/2000/svg">
<g clip-path="url(#clip0_740_973)">
<path fill-rule="evenodd" clip-rule="evenodd" d="M75.9636 23.1143V45.1659V61.1069C68.5266 66.9519 58.9648 71.2028 47.0125 71.9999V31.8818C49.1373 29.225 55.2463 23.1143 71.1827 23.1143H75.9636Z" fill="white"/>
<path fill-rule="evenodd" clip-rule="evenodd" d="M46.2156 19.9259V4.78204C53.387 -0.265932 74.9012 -5.3139 87.3847 12.2212C96.9466 25.771 92.6968 46.4942 77.5572 59.7783V43.0403C81.0101 38.2581 84.463 26.8337 76.7604 17.5348C69.0578 8.5016 52.8558 11.4241 46.2156 19.9259Z" fill="white"/>
<path fill-rule="evenodd" clip-rule="evenodd" d="M16.4678 23.1143V45.1659V61.1069C23.9048 66.9519 33.4666 71.2028 45.419 71.9999V31.8818C43.2941 29.225 37.1851 23.1143 21.2487 23.1143H16.4678Z" fill="white"/>
<path fill-rule="evenodd" clip-rule="evenodd" d="M46.2157 19.9259V4.78204C39.0443 -0.265932 17.2645 -5.3139 5.04655 12.2212C-4.51531 25.771 -0.265592 46.4942 14.874 59.7783V43.0403C11.4211 38.2581 7.96823 26.8337 15.4052 17.8005C23.1078 8.5016 39.5755 11.4241 46.2157 19.9259Z" fill="white"/>
<path fill-rule="evenodd" clip-rule="evenodd" d="M108.102 21.7857C105.712 20.9887 104.118 20.1916 103.056 19.3946C101.993 18.3319 101.462 17.2691 101.462 15.675C101.462 14.0809 101.993 12.7525 103.321 11.6898C104.649 10.6271 106.243 10.0957 108.368 10.0957C109.696 10.0957 111.024 10.3614 112.086 10.8928C113.149 11.4241 113.946 12.2212 114.742 13.2839C115.274 14.3466 115.539 15.4094 115.539 16.4721H112.883C112.883 15.1437 112.352 14.3466 111.555 13.5496C110.758 12.7525 109.696 12.4868 108.102 12.4868C106.774 12.4868 105.712 12.7525 104.915 13.2839C104.118 13.8153 103.853 14.6123 103.853 15.675C103.853 16.4721 104.118 17.2691 104.915 17.8005C105.712 18.3319 106.774 18.8632 108.633 19.3946C110.227 19.926 111.821 20.4573 112.618 20.9887C113.68 21.5201 114.211 22.3171 114.742 23.1142C115.274 23.9112 115.539 24.7082 115.539 25.771C115.539 27.3651 115.008 28.6935 113.68 29.7562C112.352 30.8189 110.493 31.3503 108.368 31.3503C107.04 31.3503 105.712 31.0846 104.384 30.5533C103.056 30.0219 102.259 29.2249 101.462 28.4278C100.665 27.3651 100.4 26.3023 100.4 25.2396H103.056C103.056 26.568 103.587 27.3651 104.384 28.1621C105.181 28.9592 106.509 29.2249 108.102 29.2249C109.43 29.2249 110.758 28.9592 111.555 28.4278C112.352 27.8964 112.618 27.0994 112.618 26.0367C112.618 24.9739 112.352 24.1769 111.555 23.6455C111.29 22.8485 109.962 22.3171 108.102 21.7857ZM133.601 12.4868H126.96V31.0846H124.304V12.4868H117.664V10.3614H133.601V12.4868ZM139.71 31.0846H137.053V10.3614H139.71V31.0846ZM150.068 21.5201L147.412 24.1769V31.0846H144.756V10.3614H147.412V20.723L156.708 10.3614H159.896L151.662 19.6603L160.427 31.3503H157.24L150.068 21.5201ZM168.661 31.3503C166.536 31.3503 164.942 30.5533 163.614 29.2249C162.286 27.8964 161.755 26.0367 161.755 23.6455V23.3798C161.755 21.7857 162.021 20.4573 162.552 19.3946C163.083 18.0662 163.88 17.2691 164.942 16.4721C166.005 15.675 167.067 15.4094 168.395 15.4094C170.52 15.4094 171.848 15.9407 173.176 17.2691C174.238 18.5975 174.77 20.4573 174.77 22.8485V23.9112H164.411C164.411 25.5053 164.942 26.568 165.739 27.6308C166.536 28.6935 167.598 28.9592 168.926 28.9592C169.989 28.9592 170.52 28.6935 171.317 28.4278C171.848 28.1621 172.645 27.6308 172.91 26.8337L174.504 28.1621C173.176 30.2876 171.317 31.3503 168.661 31.3503ZM168.395 17.5348C167.333 17.5348 166.536 17.8005 165.739 18.5975C164.942 19.3946 164.677 20.4573 164.411 21.7857H172.114C172.114 20.4573 171.582 19.3946 171.051 18.5975C170.254 17.8005 169.458 17.5348 168.395 17.5348ZM186.722 27.0994C186.722 26.3023 186.456 25.771 185.925 25.5053C185.394 25.2396 184.332 24.7082 183.004 24.4426C181.675 23.9112 180.613 23.6455 179.816 23.3798C179.019 22.8485 178.488 22.5828 177.957 22.0514C177.691 21.5201 177.426 20.723 177.426 20.1916C177.426 18.8632 177.957 17.8005 179.019 17.0035C180.082 16.2064 181.41 15.675 183.004 15.675C184.863 15.675 186.191 16.2064 187.253 17.0035C188.316 17.8005 188.847 19.1289 188.847 20.4573H186.191C186.191 19.6603 185.925 19.1289 185.394 18.5975C184.863 18.0662 184.066 17.8005 183.004 17.8005C181.941 17.8005 181.41 18.0662 180.879 18.3319C180.613 18.5975 180.347 19.1289 180.347 19.6603C180.347 20.1916 180.613 20.723 181.144 20.9887C181.675 21.2544 182.472 21.5201 183.8 21.7857C185.128 22.0514 186.191 22.3171 186.988 22.8485C187.784 23.3798 188.316 23.6455 188.847 24.4426C189.112 24.9739 189.378 25.771 189.378 26.568C189.378 27.8964 188.847 28.9592 187.784 29.7562C186.722 30.5533 185.128 31.0846 183.535 31.0846C182.207 31.0846 181.144 30.8189 180.347 30.5533C179.285 30.0219 178.754 29.4905 178.223 28.6935C177.691 27.8964 177.426 27.0994 177.426 26.0367H180.082C180.082 26.8337 180.613 27.6308 181.144 28.1621C181.675 28.6935 182.738 28.9592 183.8 28.9592C184.863 28.9592 185.66 28.6935 186.191 28.4278C186.456 28.1621 186.722 27.6308 186.722 27.0994Z" fill="white"/>
<path fill-rule="evenodd" clip-rule="evenodd" d="M107.04 37.7269L112.352 52.8708L117.664 37.7269H123.242V58.4501H118.992V52.8708L119.523 43.0405L113.946 58.4501H111.024L105.446 43.0405L105.978 52.8708V58.4501H101.728V37.7269H107.04ZM135.726 58.7158C135.46 58.4501 135.46 57.9187 135.194 57.3874C134.132 58.4501 132.804 58.9815 131.21 58.9815C129.617 58.9815 128.554 58.4501 127.492 57.6531C126.429 56.856 125.898 55.7933 125.898 54.4649C125.898 52.8708 126.429 51.5423 127.757 50.7453C129.085 49.9483 130.679 49.4169 133.069 49.4169H134.929V48.6198C134.929 47.8228 134.663 47.2914 134.397 47.0257C134.132 46.4944 133.335 46.4944 132.538 46.4944C131.741 46.4944 131.21 46.7601 130.945 47.0257C130.679 47.2914 130.413 47.8228 130.413 48.3542H126.164C126.164 47.5571 126.429 46.7601 126.96 45.963C127.492 45.166 128.289 44.6346 129.351 44.1032C130.413 43.5719 131.476 43.5719 132.804 43.5719C134.663 43.5719 136.257 44.1032 137.319 44.9003C138.382 45.963 138.913 47.2914 138.913 48.8855V55.5276C138.913 56.856 139.178 58.1844 139.444 58.9815V59.2471H135.726V58.7158ZM132.273 55.7933C132.804 55.7933 133.335 55.5276 133.866 55.2619C134.397 54.9962 134.663 54.7305 134.929 54.1992V51.5423H133.335C131.21 51.5423 130.148 52.3394 130.148 53.6678V53.9335C130.148 54.4649 130.413 54.9962 130.679 55.2619C131.21 55.5276 131.741 55.7933 132.273 55.7933ZM147.943 52.8708L150.865 43.3062H155.38L149.006 61.1069L148.74 61.904C147.943 64.0294 146.35 64.8265 144.225 64.8265C143.694 64.8265 142.897 64.8265 142.366 64.5608V61.3726H142.897C143.694 61.3726 144.225 61.3726 144.756 61.1069C145.022 60.8412 145.553 60.5756 145.553 60.0442L146.084 58.7158L140.772 43.3062H145.287L147.943 52.8708ZM165.739 58.7158C165.474 58.4501 165.474 57.9187 165.208 57.3874C164.145 58.4501 162.817 58.9815 161.224 58.9815C159.63 58.9815 158.568 58.4501 157.505 57.6531C156.443 56.856 155.912 55.7933 155.912 54.4649C155.912 52.8708 156.443 51.5423 157.771 50.7453C159.099 49.9483 160.693 49.4169 163.083 49.4169H164.942V48.6198C164.942 47.8228 164.677 47.2914 164.411 47.0257C164.145 46.4944 163.349 46.4944 162.552 46.4944C161.755 46.4944 161.224 46.7601 160.958 47.0257C160.693 47.2914 160.427 47.8228 160.427 48.3542H156.177C156.177 47.5571 156.443 46.7601 156.974 45.963C157.505 45.166 158.302 44.6346 159.365 44.1032C160.427 43.5719 161.489 43.5719 162.817 43.5719C164.677 43.5719 166.27 44.1032 167.333 44.9003C168.395 45.963 168.926 47.2914 168.926 48.8855V55.5276C168.926 56.856 169.192 58.1844 169.458 58.9815V59.2471H165.739V58.7158ZM162.286 55.7933C162.817 55.7933 163.349 55.5276 163.88 55.2619C164.411 54.9962 164.677 54.7305 164.942 54.1992V51.5423H163.349C161.224 51.5423 160.161 52.3394 160.161 53.6678V53.9335C160.161 54.4649 160.427 54.9962 160.693 55.2619C160.958 55.5276 161.489 55.7933 162.286 55.7933ZM186.191 51.011C186.191 53.4021 185.66 55.2619 184.597 56.856C183.535 58.1844 181.941 58.9815 180.348 58.9815C178.754 58.9815 177.426 58.4501 176.629 57.3874V64.5608H172.379V43.3062H176.098L176.363 44.9003C177.426 43.5719 178.754 43.0405 180.348 43.0405C182.207 43.0405 183.8 43.8376 184.863 45.166C185.66 46.4944 186.191 48.3542 186.191 51.011ZM182.207 50.7453C182.207 49.4169 181.941 48.0885 181.41 47.2914C180.879 46.4944 180.082 46.2287 179.285 46.2287C177.957 46.2287 177.16 46.7601 176.629 47.8228V54.1992C177.16 55.2619 177.957 55.7933 179.285 55.7933C181.144 55.5276 182.207 53.9335 182.207 50.7453ZM197.612 58.7158C197.346 58.4501 197.346 57.9187 197.081 57.3874C196.018 58.4501 194.69 58.9815 193.097 58.9815C191.503 58.9815 190.441 58.4501 189.378 57.6531C188.316 56.856 187.785 55.7933 187.785 54.4649C187.785 52.8708 188.316 51.5423 189.644 50.7453C190.972 49.9483 192.565 49.4169 194.956 49.4169H196.815V48.6198C196.815 47.8228 196.55 47.2914 196.284 47.0257C196.018 46.4944 195.222 46.4944 194.425 46.4944C193.628 46.4944 193.097 46.7601 192.831 47.0257C192.565 47.2914 192.3 47.8228 192.3 48.3542H188.581C188.581 47.5571 188.847 46.7601 189.378 45.963C189.909 45.166 190.706 44.6346 191.769 44.1032C192.831 43.5719 193.894 43.5719 195.222 43.5719C197.081 43.5719 198.674 44.1032 199.737 44.9003C200.799 45.963 201.331 47.2914 201.331 48.8855V55.5276C201.331 56.856 201.596 58.1844 201.862 58.9815V59.2471H197.612V58.7158ZM194.425 55.7933C194.956 55.7933 195.487 55.5276 196.018 55.2619C196.55 54.9962 196.815 54.7305 197.081 54.1992V51.5423H195.487C193.362 51.5423 192.3 52.3394 192.3 53.6678V53.9335C192.3 54.4649 192.565 54.9962 192.831 55.2619C193.097 55.5276 193.628 55.7933 194.425 55.7933ZM203.721 50.7453C203.721 48.3542 204.252 46.4944 205.315 44.9003C206.377 43.5719 207.971 42.7748 209.83 42.7748C211.424 42.7748 212.486 43.3062 213.548 44.3689V36.3984H217.798V58.1844H214.08L213.814 56.5903C212.752 57.9187 211.424 58.4501 209.83 58.4501C207.971 58.4501 206.643 57.6531 205.58 56.3246C204.252 55.2619 203.721 53.4021 203.721 50.7453ZM207.971 51.011C207.971 52.3394 208.236 53.6678 208.768 54.4649C209.299 55.2619 210.096 55.5276 210.892 55.5276C212.22 55.5276 213.017 54.9962 213.548 53.9335V47.8228C213.017 46.7601 212.22 46.2287 210.892 46.2287C209.033 46.2287 207.971 47.8228 207.971 51.011ZM229.75 58.7158C229.485 58.4501 229.485 57.9187 229.219 57.3874C228.157 58.4501 226.829 58.9815 225.235 58.9815C223.642 58.9815 222.579 58.4501 221.517 57.6531C220.454 56.856 219.923 55.7933 219.923 54.4649C219.923 52.8708 220.454 51.5423 221.782 50.7453C223.11 49.9483 224.704 49.4169 227.094 49.4169H228.954V48.6198C228.954 47.8228 228.688 47.2914 228.422 47.0257C228.157 46.4944 227.36 46.4944 226.563 46.4944C225.766 46.4944 225.235 46.7601 224.97 47.0257C224.704 47.2914 224.438 47.8228 224.438 48.3542H220.189C220.189 47.5571 220.454 46.7601 220.985 45.963C221.517 45.166 222.313 44.6346 223.376 44.1032C224.438 43.5719 225.501 43.5719 226.829 43.5719C228.688 43.5719 230.282 44.1032 231.344 44.9003C232.407 45.963 232.938 47.2914 232.938 48.8855V55.5276C232.938 56.856 233.203 58.1844 233.469 58.9815V59.2471H229.75V58.7158ZM226.563 55.7933C227.094 55.7933 227.626 55.5276 228.157 55.2619C228.688 54.9962 228.954 54.7305 229.219 54.1992V51.5423H227.626C225.501 51.5423 224.438 52.3394 224.438 53.6678V53.9335C224.438 54.4649 224.704 54.9962 224.97 55.2619C225.235 55.5276 225.766 55.7933 226.563 55.7933Z" fill="white"/>
</g>
<defs>
<clipPath id="clip0_740_973">
<rect width="234" height="72" fill="white"/>
</clipPath>
</defs>
</svg>
