<svg width="105" height="90" viewBox="0 0 105 90" fill="none" xmlns="http://www.w3.org/2000/svg">
<path d="M52.4402 68.7494C81.4021 68.7494 104.88 54.9775 104.88 37.989C104.88 21.0004 81.4021 7.22852 52.4402 7.22852C23.4783 7.22852 0 21.0004 0 37.989C0 54.9775 23.4783 68.7494 52.4402 68.7494Z" fill="#3337A3"/>
<path d="M52.4403 65.8915C79.4874 65.8915 101.413 53.3992 101.413 37.9892C101.413 22.5792 79.4874 10.0869 52.4403 10.0869C25.3931 10.0869 3.46704 22.5792 3.46704 37.9892C3.46704 53.3992 25.3931 65.8915 52.4403 65.8915Z" fill="#30DDFF"/>
<path fill-rule="evenodd" clip-rule="evenodd" d="M52.4402 13.3232C58.368 13.3232 63.5972 17.5079 66.7502 23.9036C62.0015 24.0445 57.2593 24.1086 52.5107 24.1086C47.7236 24.1086 42.9301 24.0317 38.143 23.8843C41.2895 17.5015 46.5188 13.3232 52.4402 13.3232ZM67.955 26.7553C69.0252 29.7032 69.6853 33.0035 69.8326 36.4897H35.0413C35.1887 32.9907 35.8551 29.6904 36.9254 26.7361C42.1226 26.9027 47.3134 26.9924 52.5107 26.9924C57.663 26.9988 62.809 26.9219 67.955 26.7553ZM69.8326 39.4825C69.6853 42.975 69.0252 46.269 67.955 49.2169C62.809 49.0567 57.6566 48.9733 52.5043 48.9797C47.307 48.9797 42.1162 49.0695 36.9189 49.2361C35.8487 46.2818 35.1823 42.9815 35.0349 39.4825H69.8326ZM66.7438 52.075C63.5972 58.4706 58.3616 62.6553 52.4338 62.6553C46.5124 62.6553 41.2831 58.477 38.1365 52.0942C42.9301 51.9469 47.7172 51.8764 52.5043 51.87C57.2529 51.8635 62.0015 51.934 66.7438 52.075ZM63.3794 14.041C66.4234 16.4249 68.9675 19.7765 70.7811 23.769C76.6192 23.5447 82.4637 23.2179 88.3017 22.7821C82.124 18.5141 73.4086 15.3803 63.3794 14.041ZM91.6469 25.4224C95.2421 28.7035 97.4722 32.4652 97.9144 36.4961H73.7226C73.5816 32.9907 72.9471 29.6583 71.909 26.6143C78.4968 26.3516 85.0719 25.9543 91.6469 25.4224ZM97.9144 39.4825C97.4722 43.5134 95.2357 47.2751 91.6469 50.5562C85.0719 50.0243 78.4968 49.6206 71.909 49.3578C72.9471 46.3138 73.5816 42.9815 73.7226 39.476H97.9144V39.4825ZM88.3017 53.1965C82.4637 52.7607 76.6192 52.4275 70.7811 52.2096C68.9739 56.202 66.4234 59.5472 63.3794 61.9376C73.4086 60.5982 82.124 57.4645 88.3017 53.1965ZM41.4946 61.9312C38.457 59.5472 35.9128 56.2085 34.1056 52.2288C28.2804 52.4531 22.4487 52.7864 16.6106 53.2221C22.7884 57.4709 31.491 60.5982 41.4946 61.9312ZM13.2526 50.5754C9.64467 47.2943 7.40172 43.5134 6.95312 39.476H31.145C31.2859 42.9879 31.9268 46.3267 32.9714 49.3771C26.4027 49.6462 19.8277 50.0435 13.2526 50.5754ZM6.95953 36.4961C7.40171 32.4588 9.64467 28.6842 13.259 25.3967C19.8341 25.9286 26.4027 26.3259 32.9778 26.5951C31.9332 29.6455 31.2988 32.9843 31.1514 36.4961H6.95953ZM16.6106 22.75C22.4487 23.1858 28.2804 23.5191 34.1056 23.7433C35.9128 19.7637 38.4634 16.4185 41.4946 14.041C31.491 15.3739 22.7884 18.5013 16.6106 22.75Z" fill="#FEF303"/>
<path fill-rule="evenodd" clip-rule="evenodd" d="M63.8599 71.3774C52.9015 65.7765 40.623 61.1368 25.262 60.6433C39.0337 59.022 52.8503 59.8038 66.0644 66.6865C74.3569 71.0057 81.56 68.3462 88.4555 65.9751C82.4188 72.0247 74.6966 76.9143 63.8599 71.3774Z" fill="#001AFF"/>
<path fill-rule="evenodd" clip-rule="evenodd" d="M23.9355 77.2275H28.5624C31.3117 77.2275 32.6831 78.3106 32.6831 80.4766C32.6831 81.5468 32.2152 82.4376 31.2732 83.1489C32.6382 83.7449 33.3175 84.7959 33.3175 86.3211C33.3175 87.4874 32.9138 88.4167 32.1127 89.1088C31.7218 89.4356 31.3052 89.6663 30.8502 89.8009C30.4017 89.929 29.7993 89.9995 29.0431 89.9995H28.3253V86.7248H28.9726C29.3571 86.7248 29.6262 86.68 29.78 86.5774C29.9338 86.4813 30.0107 86.3083 30.0107 86.0648C30.0107 85.6482 29.6903 85.4431 29.0559 85.4431H28.3253V82.0403C29.0303 82.0403 29.3763 81.7967 29.3763 81.3161C29.3763 80.8739 29.0623 80.6496 28.4279 80.6496H27.7293V89.9931H23.942V77.2275H23.9355Z" fill="black"/>
<path fill-rule="evenodd" clip-rule="evenodd" d="M39.4759 83.5851V86.956H38.3865V90H34.5991V81.8805C34.5991 80.3168 35.0285 79.0928 35.8872 78.2277C36.7459 77.3625 37.9507 76.9268 39.508 76.9268C41.0076 76.9268 42.1162 77.3177 42.834 78.1059C43.5517 78.8941 43.9106 80.1053 43.9106 81.7523V90H40.1232V82.0022C40.1232 81.5088 40.0655 81.1755 39.9438 80.9833C39.822 80.7975 39.6105 80.7013 39.2965 80.7013C38.6941 80.7013 38.3993 81.1371 38.3993 82.0086V83.5915H39.4759V83.5851Z" fill="black"/>
<path fill-rule="evenodd" clip-rule="evenodd" d="M45.9229 89.9931V81.707C45.9229 80.2587 46.3586 79.0988 47.2302 78.2272C48.0953 77.3557 49.2552 76.9199 50.7035 76.9199C52.1454 76.9199 53.2477 77.3429 54.0103 78.1888C54.7729 79.0347 55.1574 80.2523 55.1574 81.8352V89.9867H51.37V81.8352C51.37 81.0726 51.0945 80.6881 50.5369 80.6881C49.9986 80.6881 49.7295 81.0726 49.7295 81.8352V89.9867H45.9229V89.9931Z" fill="black"/>
<path d="M60.4443 83.1045H56.1763V85.5717H60.4443V83.1045Z" fill="black"/>
<path fill-rule="evenodd" clip-rule="evenodd" d="M65.8852 85.5841V82.2325C66.6478 82.2325 67.0323 81.9441 67.0323 81.361C67.0323 80.8291 66.7375 80.5599 66.1479 80.5599C65.552 80.5599 65.2508 80.9252 65.2508 81.6558V89.9931H61.4634V82.0467C61.4634 81.2264 61.5467 80.5535 61.7133 80.0216C61.8735 79.4961 62.1619 79.0091 62.5592 78.5541C63.0078 78.0478 63.5718 77.6505 64.2446 77.3621C64.9175 77.0673 65.616 76.9199 66.3274 76.9199C67.6283 76.9199 68.7177 77.3557 69.5957 78.2272C70.48 79.0988 70.9222 80.1818 70.9222 81.4699C70.9222 82.726 70.5249 83.7385 69.7367 84.5139C69.0189 85.2317 67.9231 85.5905 66.4684 85.5905L65.8852 85.5841Z" fill="black"/>
<path fill-rule="evenodd" clip-rule="evenodd" d="M78.0418 80.8996V89.9931H74.2481V80.8996H71.3386V77.2275H80.932V80.8996H78.0418Z" fill="black"/>
<path fill-rule="evenodd" clip-rule="evenodd" d="M51.5301 63.2128L32.9072 32.7535L52.062 49.8448L81.6305 0L51.5301 63.2128Z" fill="#FF0000"/>
</svg>
