<svg width="147" height="72" viewBox="0 0 147 72" fill="none" xmlns="http://www.w3.org/2000/svg">
<g clip-path="url(#clip0_1022_3152)">
<path d="M44.7474 8.81852C44.8008 8.74928 44.8541 8.68004 44.9406 8.59953C44.9989 8.55731 45.024 8.52634 45.0491 8.49538C45.6735 8.07067 46.2796 7.61564 46.9253 7.22643C49.9134 5.42541 52.9124 3.64253 55.9077 1.85351C56.5167 1.48983 57.1242 1.12376 57.7365 0.765901C58.3567 0.403415 59.0301 0.192451 59.7549 0.0745017C59.9863 0.0580419 60.2021 0.0580419 60.4451 0.0774262C60.473 0.122653 60.4736 0.148496 60.4734 0.201786C60.4726 4.54431 60.4726 8.8594 60.4726 13.1512C60.6167 13.2058 60.7198 13.2448 60.7959 13.2859C59.7179 13.243 58.7209 13.444 57.7996 13.9623C57.3259 14.2289 56.8645 14.5172 56.3969 14.7945C55.3459 15.418 54.2945 16.0407 53.2217 16.6604C53.1302 16.6242 53.0511 16.603 52.992 16.5563C52.491 16.1605 51.9959 15.7573 51.4947 15.3618C50.6297 14.6791 49.7631 13.9983 48.8942 13.3206C48.0033 12.6257 47.0676 11.9814 46.2284 11.2292C45.5105 10.5857 44.8672 9.83728 45.0152 8.72723C44.9224 8.75887 44.8349 8.78869 44.7474 8.81852Z" fill="white"/>
<path d="M84.6604 0.0585938C84.7797 0.0585934 84.899 0.0585934 85.044 0.0859823C85.0703 4.47788 85.071 8.84238 85.0464 13.2081C84.4043 13.2746 83.7797 13.3087 83.216 13.6094C83.1051 13.6686 83.0085 13.7548 82.8914 13.8389C82.8551 13.8545 82.8327 13.8597 82.7872 13.8609C82.6164 13.8408 82.5038 13.8742 82.4776 14.0622C82.4385 14.0821 82.4143 14.0898 82.377 14.0977C82.3458 14.1043 82.3352 14.117 82.3301 14.1418C82.3282 14.1476 82.3161 14.1491 82.2949 14.1468C82.1728 14.2182 82.0718 14.2919 81.9698 14.3703C81.9687 14.375 81.9593 14.3728 81.9385 14.3733C81.8244 14.4382 81.7312 14.5025 81.636 14.5668C81.6342 14.5669 81.6341 14.5706 81.6136 14.5669C81.5265 14.6167 81.4598 14.6702 81.3924 14.7274C81.3916 14.7311 81.3841 14.7312 81.3626 14.7298C81.2386 14.8028 81.1362 14.8771 81.0337 14.9551C81.0337 14.9587 81.0265 14.9573 81.017 14.9606C80.9952 14.9704 80.9865 14.9801 80.9642 15.0056C79.5077 15.9187 78.0786 16.8365 76.625 17.7136C75.6928 18.2761 74.6759 18.6206 73.5463 18.653C73.4065 18.6402 73.2932 18.633 73.1677 18.625C73.1677 14.2427 73.1677 9.88505 73.1677 5.53003C73.2691 5.50537 73.3526 5.48505 73.4594 5.45656C73.5483 5.44797 73.614 5.44755 73.6846 5.45506C73.6894 5.46298 73.7146 5.4652 73.7146 5.4652C73.7146 5.4652 73.7308 5.44392 73.7551 5.4389C74.9077 5.3029 75.9469 4.92748 76.9079 4.32004C78.3782 3.39069 79.8514 2.46585 81.3319 1.55292C82.0657 1.10043 82.7611 0.570301 83.6083 0.328816C83.9564 0.229586 84.3095 0.148133 84.6604 0.0585938Z" fill="white"/>
<path d="M85.0716 13.2069C85.071 8.84238 85.0703 4.47788 85.0695 0.0859827C85.3434 0.0585938 85.6173 0.0585938 85.9186 0.0585938C86.0976 0.12205 86.2494 0.185507 86.3929 0.275458C86.25 0.296923 86.1153 0.293401 85.9809 0.286424C85.8561 0.279952 85.7224 0.29603 85.6087 0.256268C85.2841 0.142758 85.1863 0.198113 85.1863 0.534329C85.1862 4.75845 85.1866 8.98257 85.1677 13.2071C85.1228 13.2073 85.0972 13.2071 85.0716 13.2069Z" fill="#F5F5F5"/>
<path d="M61.0294 0.0585938C61.5413 0.20424 62.0411 0.31442 62.5077 0.505889C62.9411 0.683786 63.339 0.948379 63.7371 1.19758C63.6207 1.20095 63.5077 1.20426 63.421 1.15812C63.0859 0.979758 62.7597 0.784634 62.4291 0.597576C61.8216 0.253743 61.159 0.162412 60.4742 0.174891C60.4736 0.149048 60.473 0.123205 60.472 0.0779782C60.6488 0.0585939 60.8258 0.0585939 61.0294 0.0585938Z" fill="white"/>
<path d="M44.7485 8.8201C44.835 8.789 44.9224 8.75918 45.0152 8.72754C44.8672 9.83759 45.5106 10.586 46.2284 11.2295C47.0676 11.9817 48.0033 12.6261 48.8942 13.3209C49.7632 13.9986 50.6297 14.6794 51.4948 15.3621C51.996 15.7576 52.4911 16.1609 52.9921 16.5566C53.0511 16.6033 53.1302 16.6245 53.2195 16.6806C53.2982 16.7745 53.3473 16.858 53.418 16.914C54.6592 17.8972 55.9035 18.8764 57.1462 19.8576C59.3576 21.6034 61.5686 23.3496 63.7793 25.0964C65.3954 26.3734 67.0159 27.6449 68.6243 28.9315C69.6886 29.7828 70.9009 30.2792 72.2344 30.4932C72.5334 30.5412 72.843 30.5226 73.1483 30.5603C73.1491 34.1962 73.1494 37.8065 73.1498 41.4168C73.1499 42.0299 73.1503 42.6429 73.1504 43.256C73.1504 43.6569 73.1503 43.6538 72.735 43.6582C72.6019 43.6596 72.4691 43.6826 72.3362 43.6957C71.3897 43.6219 70.4814 43.3721 69.6935 42.8571C68.7846 42.2631 67.9262 41.5886 67.0692 40.9191C64.7009 39.0688 62.343 37.2051 59.9843 35.3426C57.4882 33.3716 54.9971 31.3944 52.5016 29.4227C50.2737 27.6624 48.0506 25.8958 45.8091 24.1529C44.9794 23.5078 44.236 22.8066 43.9048 21.7814C43.7687 21.3602 43.6513 20.9102 43.648 20.4724C43.626 17.4924 43.6261 14.5121 43.643 11.5321C43.6484 10.5693 43.9922 9.70647 44.638 8.94558C44.7012 8.89738 44.7264 8.85811 44.7516 8.81884C44.7516 8.81884 44.7496 8.82137 44.7485 8.8201Z" fill="#F5F5F5"/>
<path d="M72.3611 43.7037C72.4691 43.683 72.6019 43.6601 72.735 43.6587C73.1502 43.6542 73.1504 43.6574 73.1504 43.2565C73.1503 42.6434 73.1499 42.0303 73.1498 41.4173C73.1494 37.807 73.1491 34.1967 73.1748 30.5534C74.8677 30.4937 76.3335 29.9283 77.6305 28.8894C78.9134 27.8618 80.2064 26.8468 81.4963 25.828C84.9686 23.085 88.4419 20.3433 91.9139 17.6C92.2087 17.3671 92.4965 17.1253 92.7878 16.8874C92.7035 16.7992 92.6464 16.7394 92.6132 16.673C92.9796 16.8007 93.2476 16.6939 93.4818 16.4266C93.5824 16.3117 93.7156 16.2247 93.8373 16.1291C94.787 15.3835 95.7385 14.6402 96.6872 13.8933C97.1887 13.4984 97.6828 13.094 98.1854 12.7004C99.0006 12.0619 99.8438 11.4531 100.449 10.5911C100.719 10.206 101.013 9.82645 101.024 9.3228C101.03 9.03626 101.028 8.74953 101.03 8.46289C101.666 8.95395 102.091 9.60108 102.308 10.3606C102.446 10.8406 102.537 11.3514 102.541 11.8492C102.563 14.6336 102.551 17.4183 102.552 20.2028C102.552 21.6586 101.995 22.8547 100.857 23.7603C98.3849 25.7289 95.9033 27.686 93.4243 29.6463C90.96 31.5951 88.4952 33.5432 86.029 35.4895C83.2805 37.6587 80.52 39.813 77.7854 41.9996C76.6798 42.8837 75.4727 43.5092 74.0645 43.6813C73.5121 43.7488 72.946 43.7046 72.3611 43.7037Z" fill="white"/>
<path d="M23.5409 64.8702C23.5409 65.3263 23.5409 65.7532 23.5409 66.1976C22.3318 66.1976 21.1408 66.1976 19.9236 66.1976C19.9236 66.0837 19.9236 65.9793 19.9236 65.875C19.9222 63.4497 19.9413 61.0242 19.9068 58.5994C19.8966 57.8868 19.7931 57.1623 19.6286 56.4679C19.3336 55.2225 18.2555 54.7231 17.0267 54.975C15.7363 55.2395 14.8591 56.2304 14.6725 57.6213C14.5692 58.3907 14.5207 59.172 14.5121 59.9487C14.4902 61.9257 14.5046 63.9031 14.5045 65.8803C14.5045 65.9839 14.5045 66.0876 14.5045 66.2028C13.2945 66.2028 12.11 66.2028 10.8948 66.2028C10.8948 66.0609 10.8952 65.9268 10.8947 65.7928C10.8863 63.319 10.8851 60.8452 10.8647 58.3715C10.8591 57.6906 10.776 57.0164 10.5262 56.3692C9.96869 54.9249 8.57804 54.6643 7.4832 55.1026C6.27101 55.5879 5.72085 56.5896 5.5594 57.8155C5.45811 58.5846 5.43061 59.3671 5.42308 60.1441C5.40468 62.0432 5.41711 63.9426 5.41712 65.8419C5.41712 65.9566 5.41712 66.0713 5.41712 66.2003C4.20492 66.2003 3.02218 66.2003 1.82483 66.2003C1.82483 61.4771 1.82483 56.7589 1.82483 52.0253C3.01641 52.0253 4.20004 52.0253 5.41832 52.0253C5.41832 52.5241 5.41832 53.0221 5.41832 53.5218C5.8505 53.1825 6.23357 52.8191 6.67343 52.5478C8.19548 51.6091 9.82362 51.3667 11.532 51.9567C12.4548 52.2755 13.1536 52.8986 13.6836 53.7134C13.772 53.8493 13.8551 53.9887 13.9516 54.1441C14.1874 53.8707 14.3941 53.6022 14.6299 53.3624C16.075 51.8937 17.8327 51.4002 19.8328 51.7672C21.2417 52.0257 22.3218 52.7787 22.9786 54.0766C23.3325 54.776 23.4508 55.5434 23.4742 56.3109C23.5227 57.897 23.5274 59.4846 23.539 61.0716C23.5482 62.328 23.5409 63.5845 23.5409 64.8702Z" fill="white"/>
<path d="M101.027 8.4639C101.028 8.74874 101.03 9.03547 101.024 9.32201C101.013 9.82566 100.719 10.2052 100.449 10.5903C99.8437 11.4524 99.0005 12.0611 98.1853 12.6996C97.6828 13.0932 97.1887 13.4976 96.6872 13.8925C95.7385 14.6394 94.7869 15.3827 93.8372 16.1283C93.7156 16.2239 93.5824 16.3109 93.4818 16.4258C93.2476 16.6931 92.9796 16.7999 92.6149 16.6682C92.5928 16.6707 92.6014 16.67 92.5912 16.6505C92.539 16.6221 92.497 16.6132 92.4352 16.6062C92.2966 16.5428 92.1765 16.48 92.0593 16.4119C91.3045 15.9731 90.5503 15.5332 89.7891 15.0751C89.7465 15.0458 89.7105 15.035 89.6618 15.0233C89.6492 15.0224 89.6283 15.0079 89.6255 14.9879C89.37 14.8307 89.1171 14.6934 88.8648 14.554C88.8652 14.5519 88.8627 14.5554 88.8619 14.5349C88.5512 14.352 88.2414 14.1895 87.9318 14.0263C87.9321 14.0256 87.9308 14.0266 87.9288 14.0062C87.8595 13.9358 87.7962 13.8791 87.7244 13.8368C86.9413 13.3755 86.0734 13.2529 85.1869 13.2061C85.1866 8.98201 85.1862 4.75789 85.1863 0.533768C85.1863 0.197552 85.2841 0.142196 85.6087 0.255707C85.7224 0.295468 85.8561 0.27939 85.9809 0.285862C86.1153 0.292839 86.25 0.296361 86.402 0.294356C87.3471 0.368002 88.0759 0.90867 88.8462 1.3468C91.3971 2.79763 93.9437 4.25584 96.4909 5.71323C97.7981 6.4612 99.1044 7.21086 100.407 7.96656C100.599 8.07791 100.769 8.22701 100.962 8.39321C100.992 8.44211 101.01 8.45644 101.028 8.47077C101.028 8.47077 101.025 8.4657 101.027 8.4639Z" fill="#F5F5F5"/>
<path d="M123.15 51.5459C123.15 49.8718 123.15 48.227 123.15 46.5576C124.338 46.5576 125.509 46.5576 126.703 46.5576C126.703 53.0952 126.703 59.6409 126.703 66.201C125.527 66.201 124.354 66.201 123.16 66.201C123.16 65.7425 123.16 65.2903 123.16 64.7564C123.027 64.865 122.94 64.9286 122.862 65.0012C120.401 67.2746 116.637 66.9955 114.353 64.7639C112.662 63.1113 111.967 61.1028 112.046 58.778C112.092 57.4329 112.359 56.1438 113.065 54.9869C114.491 52.6506 116.552 51.4638 119.323 51.6769C120.644 51.7785 121.792 52.3273 122.785 53.2011C122.88 53.2846 122.972 53.3714 123.067 53.4543C123.078 53.4638 123.102 53.4579 123.15 53.4611C123.15 52.8309 123.15 52.203 123.15 51.5459ZM122.259 62.0652C122.405 61.8711 122.57 61.6884 122.693 61.4812C123.325 60.4266 123.447 59.2759 123.213 58.0996C122.905 56.5465 121.992 55.4774 120.432 55.0963C118.902 54.7227 117.551 55.0909 116.524 56.3426C115.655 57.4011 115.472 58.6463 115.689 59.9524C115.943 61.4826 116.784 62.6082 118.274 63.091C119.762 63.5728 121.116 63.2389 122.259 62.0652Z" fill="white"/>
<path d="M88.6464 52.4661C91.166 54.0599 92.1786 56.4087 92.1488 59.2843C92.129 61.1932 91.5329 62.8847 90.2589 64.3361C88.4908 66.3503 85.7613 67.0991 83.2624 66.2052C82.5685 65.9569 81.9615 65.5518 81.402 65.0752C81.2995 64.9878 81.1978 64.8994 81.0313 64.7561C81.0313 65.9122 81.0313 67.0028 81.0313 68.0934C81.0313 69.1827 81.0313 70.272 81.0313 71.3819C79.8472 71.3819 78.6838 71.3819 77.494 71.3819C77.494 64.9388 77.494 58.4909 77.494 52.0269C78.6603 52.0269 79.8249 52.0269 81.0239 52.0269C81.0239 52.4963 81.0239 52.9666 81.0239 53.4914C81.123 53.4264 81.18 53.4005 81.2225 53.3596C83.26 51.4014 86.3024 51.1456 88.6464 52.4661ZM82.3649 55.7638C82.1177 56.0235 81.8295 56.2553 81.6303 56.5477C80.7474 57.8435 80.6672 59.2661 81.1431 60.7084C81.5907 62.0649 82.5556 62.9372 83.9704 63.2087C85.3693 63.4772 86.5901 63.0954 87.5481 62.0054C88.4679 60.959 88.7051 59.7142 88.5238 58.3778C88.3297 56.9475 87.6112 55.839 86.2615 55.2764C84.9166 54.7158 83.5992 54.8582 82.3649 55.7638Z" fill="white"/>
<path d="M31.1199 51.8767C33.4561 51.305 35.4918 51.8111 37.2728 53.5087C37.2728 52.9885 37.2728 52.5221 37.2728 52.0334C38.4917 52.0334 39.6708 52.0334 40.8638 52.0334C40.8638 56.7503 40.8638 61.46 40.8638 66.1921C39.6833 66.1921 38.5036 66.1921 37.296 66.1921C37.296 65.7362 37.296 65.2845 37.296 64.772C37.0432 64.9774 36.8368 65.1456 36.6298 65.3132C34.3328 67.1732 30.8257 66.9457 28.6107 64.8676C26.8289 63.1958 26.1035 61.1254 26.1982 58.7232C26.2511 57.3801 26.5359 56.0966 27.2396 54.9402C28.1454 53.4515 29.3845 52.3636 31.1199 51.8767ZM30.1516 61.0295C30.2252 61.1665 30.2934 61.3067 30.3731 61.4401C31.858 63.9241 35.4528 63.9101 36.8866 61.4004C37.5988 60.1536 37.6574 58.811 37.1928 57.4797C36.7136 56.1062 35.7128 55.2541 34.2639 55.024C32.8625 54.8014 31.6194 55.163 30.7135 56.304C29.5783 57.7338 29.5209 59.3261 30.1516 61.0295Z" fill="white"/>
<path d="M140.707 53.4002C140.707 52.9464 140.707 52.4927 140.707 52.0245C141.926 52.0245 143.1 52.0245 144.291 52.0245C144.291 56.7437 144.291 61.4606 144.291 66.1961C143.114 66.1961 141.941 66.1961 140.736 66.1961C140.736 65.7406 140.736 65.282 140.736 64.7458C140.588 64.874 140.494 64.951 140.405 65.0324C137.994 67.234 134.318 66.9992 132.05 64.8725C130.823 63.7227 130.003 62.3478 129.752 60.6841C129.374 58.1775 129.743 55.8396 131.464 53.8458C133.399 51.6043 136.603 50.9798 139.197 52.3866C139.711 52.6656 140.151 53.0832 140.655 53.4531C140.699 53.4668 140.713 53.4644 140.727 53.4619C140.72 53.4413 140.714 53.4208 140.707 53.4002ZM133.206 58.7708C133.172 59.4175 133.214 60.0575 133.445 60.6676C134.004 62.1438 135.03 63.0883 136.627 63.2573C138.131 63.4165 139.351 62.8549 140.206 61.5846C140.828 60.6611 140.948 59.6204 140.867 58.5395C140.677 55.995 138.202 54.3496 135.782 55.1593C134.312 55.6513 133.317 57.0252 133.206 58.7708Z" fill="white"/>
<path d="M98.9631 66.1677C96.4014 65.0362 94.9374 63.0842 94.5468 60.3482C94.3115 58.6996 94.4558 57.0695 95.1921 55.5545C96.2575 53.3623 97.9571 51.9556 100.434 51.6825C102.252 51.482 103.878 52.0016 105.249 53.2433C105.334 53.3205 105.422 53.3954 105.556 53.5133C105.556 52.9877 105.556 52.5125 105.556 52.0245C106.767 52.0245 107.941 52.0245 109.13 52.0245C109.13 56.7513 109.13 61.4678 109.13 66.1995C107.947 66.1995 106.774 66.1995 105.577 66.1995C105.577 65.7412 105.577 65.2894 105.577 64.7448C103.625 66.5717 101.434 67.0084 98.9631 66.1677ZM102.479 55.0049C101.405 54.8841 100.404 55.0523 99.5372 55.7508C97.7467 57.1938 97.4971 60.1672 99.017 61.9539C100.354 63.5261 102.695 63.7505 104.279 62.4452C105.288 61.6145 105.692 60.5007 105.732 59.2259C105.806 56.8143 104.297 55.2829 102.479 55.0049Z" fill="white"/>
<path d="M65.5035 51.6621C67.3856 51.5545 68.9611 52.1881 70.3334 53.5183C70.3334 52.9873 70.3334 52.5188 70.3334 52.0303C71.5394 52.0303 72.7116 52.0303 73.9061 52.0303C73.9061 56.7414 73.9061 61.4569 73.9061 66.1934C72.736 66.1934 71.556 66.1934 70.3501 66.1934C70.3501 65.7341 70.3501 65.2833 70.3501 64.7647C70.2095 64.8818 70.1133 64.9558 70.024 65.0373C67.588 67.2578 63.8714 66.986 61.6023 64.8061C59.6274 62.9089 59.0206 60.5745 59.3172 57.9359C59.5476 55.8855 60.4486 54.1932 62.0857 52.918C63.0802 52.1434 64.2168 51.7338 65.5035 51.6621ZM64.6488 55.5162C64.4643 55.6584 64.2661 55.7861 64.0975 55.945C62.7976 57.1698 62.4308 59.3175 63.2182 61.0494C64.3228 63.4792 67.4935 64.0625 69.3599 62.1719C70.3093 61.2102 70.5925 60.0104 70.5029 58.7074C70.2656 55.255 66.8514 54.195 64.6488 55.5162Z" fill="white"/>
<path d="M45.6263 58.6855C44.7136 56.4617 43.8089 54.2588 42.8857 52.0107C43.0633 52.0107 43.2038 52.0107 43.3444 52.0107C44.318 52.0108 45.2917 52.0201 46.2651 52.004C46.5002 52.0002 46.6005 52.0793 46.6864 52.2883C47.8142 55.0329 48.9508 57.774 50.0856 60.5158C50.1227 60.6053 50.1636 60.6932 50.2271 60.837C50.2914 60.7092 50.3387 60.6224 50.3797 60.5327C51.6366 57.7802 52.8949 55.0283 54.1451 52.2726C54.2329 52.0791 54.331 52.0024 54.5514 52.0049C55.6699 52.0176 56.7887 52.0107 57.9404 52.0107C57.9062 52.1056 57.8863 52.1761 57.8562 52.2419C54.9666 58.5491 52.0767 64.8563 49.1812 71.1608C49.1367 71.2577 49.0233 71.391 48.9406 71.392C47.7648 71.4072 46.5888 71.4023 45.3665 71.4023C45.4142 71.2859 45.4456 71.1989 45.4846 71.1154C46.3661 69.2295 47.2464 67.343 48.1335 65.4597C48.2343 65.2455 48.2548 65.0664 48.1567 64.8315C47.3058 62.794 46.4727 60.7491 45.6263 58.6855Z" fill="white"/>
<path d="M33.3475 37.0692C33.4668 37.5691 33.6318 38.0448 33.6722 38.531C33.7269 39.1877 33.6858 39.8523 33.6858 40.5496C32.0787 40.5496 30.4691 40.5496 28.8278 40.5496C28.8045 41.1757 28.7562 41.772 29.0059 42.3284C29.2267 42.8204 29.688 42.9647 30.1812 43.0096C31.102 43.0935 32.0054 42.9656 32.9005 42.7588C33.0408 42.7264 33.1803 42.6901 33.3547 42.6471C33.4214 43.0398 33.4842 43.4091 33.5575 43.8405C33.1141 43.9449 32.6888 44.0685 32.255 44.1425C31.2526 44.3135 30.246 44.3938 29.2451 44.1242C28.1442 43.8277 27.4517 43.0217 27.4114 41.8731C27.3688 40.6583 27.3592 39.4392 27.4095 38.225C27.4654 36.8789 28.4143 35.9464 29.7918 35.7705C30.5136 35.6782 31.2293 35.6872 31.931 35.9007C32.555 36.0905 33.0342 36.464 33.3475 37.0692ZM32.0783 37.6171C31.9244 37.3269 31.682 37.1424 31.3732 37.0484C30.848 36.8885 30.3194 36.8944 29.7951 37.0521C29.4338 37.1607 29.1552 37.3823 29.0026 37.7304C28.778 38.2427 28.7973 38.7835 28.8246 39.3308C29.993 39.3308 31.1341 39.3308 32.2997 39.3308C32.2926 38.7518 32.3526 38.1874 32.0783 37.6171Z" fill="#F5F5F5"/>
<path d="M35.7186 38.9461C35.7075 38.4351 35.67 37.947 35.7018 37.4634C35.7666 36.48 36.4263 35.9029 37.5683 35.7717C38.5943 35.6538 39.6066 35.7476 40.6151 35.9423C40.794 35.9769 40.8631 36.0477 40.8401 36.2339C40.8021 36.5408 40.7839 36.8501 40.7549 37.1881C40.2906 37.1305 39.8516 37.0561 39.4097 37.0267C38.9253 36.9944 38.4368 36.9772 37.9525 37.0017C37.35 37.0322 37.1254 37.2921 37.1033 37.8924C37.103 37.9022 37.103 37.9119 37.1027 37.9216C37.0797 38.8263 37.2266 39.0194 38.0891 39.267C38.7422 39.4545 39.3963 39.6409 40.0403 39.8565C40.6745 40.0689 40.9995 40.545 41.0097 41.2045C41.0181 41.7469 41.011 42.2948 40.9428 42.8317C40.862 43.4676 40.4635 43.8818 39.8528 44.0758C38.9505 44.3625 38.0284 44.3396 37.1071 44.209C36.6661 44.1465 36.2323 44.0318 35.7955 43.9397C35.6304 43.9048 35.5494 43.8281 35.5932 43.6357C35.6599 43.3426 35.6989 43.0432 35.7556 42.712C36.0091 42.7659 36.2495 42.8437 36.4947 42.8642C37.2288 42.9254 37.9647 42.999 38.7001 43.0013C39.3354 43.0033 39.5856 42.7021 39.6028 42.067C39.6059 41.9502 39.6036 41.8333 39.6026 41.7165C39.599 41.3216 39.4203 41.0396 39.0403 40.9226C38.493 40.7542 37.9386 40.6092 37.3885 40.4498C37.202 40.3958 37.0174 40.334 36.8352 40.2668C36.2254 40.0415 35.8052 39.6509 35.7186 38.9461Z" fill="#F5F5F5"/>
<path d="M3.42887 42.9838C4.0266 42.9781 4.5996 42.992 5.16872 42.9515C5.51868 42.9266 5.72474 42.6766 5.75895 42.3277C5.78443 42.068 5.78548 41.8024 5.764 41.5422C5.73439 41.1835 5.48172 40.9993 5.16617 40.9041C4.57132 40.7246 3.97122 40.5627 3.37507 40.3874C3.19834 40.3355 3.02266 40.2742 2.85487 40.1987C2.35578 39.9738 1.97694 39.6236 1.9333 39.054C1.88899 38.4754 1.86236 37.8869 1.91761 37.3114C1.99592 36.4956 2.52545 36.0287 3.30198 35.8572C4.49451 35.5939 5.68251 35.7207 6.86202 35.9644C6.92725 35.9778 7.01489 36.1084 7.01301 36.1824C7.00465 36.5108 6.96742 36.8384 6.93885 37.1883C6.48841 37.1317 6.05915 37.0574 5.62687 37.0289C5.13269 36.9963 4.63472 36.9793 4.14041 37.0012C3.54263 37.0277 3.31491 37.2853 3.28521 37.8851C3.27944 38.0016 3.27906 38.1189 3.28419 38.2355C3.3083 38.7833 3.44411 38.9918 3.96461 39.1591C4.50941 39.3343 5.06862 39.464 5.61665 39.6298C5.88541 39.711 6.14846 39.817 6.40465 39.9328C6.85765 40.1375 7.14353 40.5047 7.16932 40.9908C7.20106 41.5889 7.18328 42.1945 7.12697 42.7913C7.06391 43.4594 6.65812 43.9157 6.01659 44.0692C5.4645 44.2013 4.88199 44.3047 4.32053 44.2753C3.54041 44.2345 2.76724 44.0588 1.99144 43.9386C1.78867 43.9072 1.72869 43.8109 1.78703 43.5945C1.86213 43.3159 1.88454 43.0231 1.93116 42.7269C2.43403 42.8135 2.91826 42.8969 3.42887 42.9838Z" fill="#F5F5F5"/>
<path d="M8.52515 36.5823C8.52515 36.3415 8.52515 36.1293 8.52515 35.8893C9.0113 35.8893 9.47413 35.8893 9.97515 35.8893C9.97515 35.3104 9.9922 34.7581 9.96787 34.2075C9.95594 33.9374 10.0213 33.8306 10.3038 33.8141C10.6593 33.7933 11.0115 33.7177 11.4093 33.6592C11.4093 34.4108 11.4093 35.1348 11.4093 35.8789C12.1967 35.8789 12.9434 35.8789 13.7372 35.8789C13.6994 36.2937 13.6638 36.6837 13.626 37.0982C12.8883 37.0982 12.1719 37.0982 11.4131 37.0982C11.4131 37.2272 11.4131 37.3302 11.4131 37.4333C11.4132 38.9721 11.4126 40.5109 11.4134 42.0497C11.4138 42.9276 11.6825 43.162 12.5559 43.0405C12.8895 42.9941 13.2212 42.9343 13.5765 42.877C13.6378 43.2512 13.6956 43.603 13.7588 43.9888C12.7715 44.3024 11.7942 44.4668 10.8131 44.076C10.2316 43.8444 10.0046 43.3223 9.99581 42.7359C9.97222 41.1683 9.98049 39.6002 9.97641 38.0323C9.97565 37.7411 9.9763 37.4499 9.9763 37.1145C9.4925 37.1145 9.02354 37.1145 8.52515 37.1145C8.52515 36.9174 8.52515 36.7642 8.52515 36.5823Z" fill="#F5F5F5"/>
<path d="M21.2312 37.0518C21.2312 39.4162 21.2312 41.7513 21.2312 44.1055C20.752 44.1055 20.2901 44.1055 19.8093 44.1055C19.8093 40.2524 19.8093 36.4041 19.8093 32.5322C20.2737 32.4665 20.731 32.4018 21.2312 32.3311C21.2312 33.9145 21.2312 35.4685 21.2312 37.0518Z" fill="#F5F5F5"/>
<path d="M23.345 37.4328C23.6792 36.964 23.9939 36.5068 24.329 36.065C24.3974 35.9749 24.5405 35.8965 24.6524 35.892C25.125 35.873 25.5988 35.884 26.1362 35.884C25.8717 36.2543 25.6436 36.5758 25.4133 36.8956C24.7423 37.8275 24.0815 38.7672 23.391 39.6844C23.2153 39.9178 23.26 40.0534 23.4116 40.2557C24.3102 41.4552 25.1975 42.6631 26.0879 43.8687C26.1377 43.9361 26.1814 44.008 26.2579 44.1228C25.6898 44.1228 25.169 44.1292 24.6487 44.1157C24.5734 44.1138 24.4807 44.0308 24.4297 43.9608C23.5076 42.694 22.5926 41.422 21.6698 40.1557C21.5682 40.0163 21.5578 39.9211 21.6651 39.7743C22.228 39.0046 22.7781 38.2256 23.345 37.4328Z" fill="#F5F5F5"/>
<path d="M15.7027 36.069C15.7443 35.989 15.7842 35.8935 15.8265 35.8924C16.2516 35.8812 16.6771 35.8856 17.1218 35.8856C17.1218 38.6349 17.1218 41.3541 17.1218 44.0987C16.6676 44.0987 16.2078 44.0987 15.7021 44.0987C15.7021 41.4368 15.7021 38.767 15.7027 36.069Z" fill="#F5F5F5"/>
<path d="M16.8222 34.6043C16.445 34.6043 16.0966 34.6043 15.7249 34.6043C15.7249 33.9147 15.7249 33.2429 15.7249 32.5557C16.1882 32.5557 16.6403 32.5557 17.1186 32.5557C17.1186 33.2253 17.1186 33.8891 17.1186 34.59C17.0357 34.5945 16.9434 34.5994 16.8222 34.6043Z" fill="#F5F5F5"/>
<path d="M45.0328 8.49609C45.0241 8.527 44.9989 8.55796 44.9578 8.59157C44.9666 8.56153 44.9915 8.52884 45.0328 8.49609Z" fill="#1BB3F5"/>
<path d="M44.7347 8.82422C44.7264 8.85801 44.7012 8.89728 44.6567 8.93924C44.6642 8.90452 44.691 8.86711 44.7347 8.82422Z" fill="white"/>
<path d="M101.025 8.45307C101.01 8.45672 100.992 8.44239 100.97 8.41067C100.985 8.40722 101.004 8.42115 101.025 8.45307Z" fill="white"/>
<path d="M72.9722 18.6496C72.7829 18.6574 72.5925 18.6828 72.4046 18.6701C71.0149 18.5766 69.822 17.9653 68.6515 17.2687C66.7815 16.1559 64.8938 15.0728 63.0116 13.9806C62.3463 13.5946 61.6253 13.379 60.8414 13.2971C60.7198 13.2451 60.6167 13.2061 60.4726 13.1515C60.4726 8.85969 60.4726 4.54461 60.4734 0.202081C61.159 0.162155 61.8216 0.253486 62.4292 0.597319C62.7597 0.784378 63.0859 0.979501 63.421 1.15787C63.5077 1.20401 63.6207 1.2007 63.747 1.21509C63.7723 1.21009 63.7905 1.21177 63.7989 1.23906C63.9721 1.40746 64.1369 1.54856 64.339 1.72158C64.6091 1.65873 64.8398 1.88992 65.0527 2.07511C65.1921 2.19634 65.2957 2.24013 65.4568 2.19596C65.4568 2.19596 65.4378 2.20074 65.4476 2.22052C65.8241 2.44358 66.1909 2.64687 66.5577 2.85015C66.5577 2.85016 66.5522 2.86323 66.5625 2.87644C66.6618 3.06083 66.7934 3.1404 66.9886 3.0831C66.9886 3.0831 67.0055 3.0821 67.0125 3.10986C67.3344 3.31304 67.6494 3.48845 67.9644 3.66386C67.9644 3.66386 67.9517 3.68206 67.9597 3.69276C68.041 3.7331 68.1144 3.76274 68.1877 3.79237C68.2204 3.80206 68.253 3.81174 68.2941 3.85962C68.4006 3.94103 68.4986 3.98425 68.5967 4.02748C68.5967 4.02747 68.5963 4.03189 68.5978 4.0502C68.762 4.17543 68.8593 4.41402 69.1186 4.32671C69.1509 4.3379 69.1831 4.3491 69.2272 4.395C69.4835 4.60751 69.7108 4.81927 69.9771 4.95375C70.2554 5.09426 70.5695 5.16642 70.8712 5.25727C71.1444 5.33952 71.4184 5.43363 71.6989 5.47297C71.9816 5.51261 72.2739 5.47765 72.5601 5.49993C72.9479 5.53011 73.0331 5.63782 73.0332 6.03431C73.0333 10.0036 73.0344 13.973 73.0308 17.9423C73.0306 18.1781 72.9926 18.4139 72.9722 18.6496Z" fill="#F5F5F5"/>
<path d="M72.9876 18.6686C72.9926 18.4144 73.0306 18.1786 73.0308 17.9428C73.0344 13.9735 73.0333 10.0041 73.0332 6.03482C73.0332 5.63832 72.9479 5.53062 72.5601 5.50043C72.274 5.47816 71.9817 5.51312 71.699 5.47348C71.4184 5.43414 71.1444 5.34003 70.8712 5.25778C70.5695 5.16693 70.2555 5.09477 69.9772 4.95426C69.7108 4.81978 69.4835 4.60802 69.2368 4.41016C69.5804 4.56035 69.9211 4.74186 70.2729 4.89871C71.263 5.34023 72.3066 5.49496 73.4101 5.45806C73.3526 5.4853 73.2691 5.50562 73.1678 5.53028C73.1678 9.8853 73.1678 14.243 73.1678 18.6253C73.2933 18.6333 73.4065 18.6405 73.5464 18.6532C73.3829 18.6682 73.1929 18.6776 72.9876 18.6686Z" fill="white"/>
<path d="M87.9288 14.0067C87.3005 13.811 86.6842 13.5252 86.0366 13.3945C84.9729 13.1798 83.9322 13.3655 82.9257 13.8275C83.0085 13.7547 83.1051 13.6686 83.216 13.6094C83.7797 13.3087 84.4043 13.2745 85.0464 13.2081C85.0972 13.207 85.1228 13.2072 85.1677 13.207C86.0734 13.2534 86.9413 13.376 87.7244 13.8373C87.7962 13.8796 87.8595 13.9363 87.9288 14.0067Z" fill="white"/>
<path d="M81.3626 14.7295C81.2804 14.8035 81.1767 14.8761 81.0534 14.9499C81.1362 14.8767 81.2387 14.8024 81.3626 14.7295Z" fill="white"/>
<path d="M82.295 14.1465C82.214 14.2207 82.1118 14.2926 81.9902 14.3649C82.0719 14.2916 82.1728 14.2179 82.295 14.1465Z" fill="white"/>
<path d="M82.7872 13.8606C82.7166 13.926 82.6229 13.9873 82.5108 14.0492C82.5038 13.8739 82.6164 13.8406 82.7872 13.8606Z" fill="white"/>
<path d="M81.9385 14.373C81.8651 14.4359 81.7708 14.4992 81.6573 14.5645C81.7312 14.5022 81.8245 14.4379 81.9385 14.373Z" fill="white"/>
<path d="M81.6136 14.5664C81.5662 14.6197 81.4983 14.6693 81.4117 14.721C81.4598 14.6697 81.5265 14.6162 81.6136 14.5664Z" fill="white"/>
<path d="M73.6846 5.45481C73.6797 5.44688 73.7048 5.43666 73.7178 5.44016C73.7309 5.44366 73.7147 5.46494 73.7147 5.46494C73.7147 5.46494 73.6895 5.46273 73.6846 5.45481Z" fill="white"/>
<path d="M82.377 14.0977C82.3857 14.1156 82.3748 14.128 82.3447 14.1353C82.3352 14.1169 82.3459 14.1042 82.377 14.0977Z" fill="white"/>
<path d="M81.0171 14.9609C81.0293 14.9762 81.022 14.9891 80.993 14.9949C80.9865 14.9804 80.9953 14.9707 81.0171 14.9609Z" fill="white"/>
<path d="M65.4485 2.17912C65.2957 2.24032 65.1922 2.19653 65.0528 2.07529C64.8398 1.89011 64.6091 1.65892 64.339 1.72177C64.1369 1.54874 63.9721 1.40764 63.8049 1.24609C64.3484 1.53779 64.8943 1.84995 65.4485 2.17912Z" fill="white"/>
<path d="M66.5486 2.83278C66.1909 2.64673 65.8241 2.44345 65.4572 2.21875C65.8178 2.40341 66.1786 2.60948 66.5486 2.83278Z" fill="white"/>
<path d="M67.9572 3.64586C67.6495 3.48829 67.3345 3.31287 67.0179 3.11621C67.3275 3.27264 67.6387 3.45033 67.9572 3.64586Z" fill="white"/>
<path d="M69.1088 4.30943C68.8594 4.41388 68.762 4.17529 68.5986 4.04785C68.7649 4.11565 68.9319 4.20397 69.1088 4.30943Z" fill="white"/>
<path d="M66.9759 3.06681C66.7934 3.14089 66.6618 3.06132 66.5645 2.87012C66.6918 2.91674 66.8275 2.98338 66.9759 3.06681Z" fill="white"/>
<path d="M68.5883 4.00961C68.4987 3.98388 68.4006 3.94066 68.3032 3.87402C68.3958 3.89778 68.4879 3.94494 68.5883 4.00961Z" fill="white"/>
<path d="M68.1778 3.77572C68.1144 3.76279 68.041 3.73315 67.9658 3.68359C68.032 3.69545 68.1 3.72723 68.1778 3.77572Z" fill="white"/>
<path d="M88.8619 14.5349C88.5579 14.3912 88.253 14.227 87.9399 14.0449C88.2414 14.1895 88.5512 14.352 88.8619 14.5349Z" fill="white"/>
<path d="M89.6256 14.9881C89.379 14.8694 89.1296 14.7308 88.8723 14.5742C89.1171 14.6936 89.37 14.8308 89.6256 14.9881Z" fill="white"/>
<path d="M89.7891 15.0752C89.7627 15.0803 89.7295 15.0668 89.6854 15.0388C89.7105 15.0351 89.7465 15.0459 89.7891 15.0752Z" fill="white"/>
<path d="M92.5912 16.6509C92.5611 16.6603 92.5207 16.6502 92.4677 16.6224C92.497 16.6136 92.539 16.6225 92.5912 16.6509Z" fill="white"/>
<path d="M140.696 53.4121C140.714 53.4213 140.72 53.4419 140.727 53.4624C140.713 53.4649 140.699 53.4673 140.674 53.4584C140.67 53.4392 140.678 53.4314 140.696 53.4121Z" fill="white"/>
<path d="M64.1248 1.78538C64.1235 1.78613 64.1261 1.78462 64.1248 1.78538V1.78538Z" fill="white"/>
</g>
<defs>
<clipPath id="clip0_1022_3152">
<rect width="146.067" height="72" fill="white"/>
</clipPath>
</defs>
</svg>
