<svg width="150" height="151" viewBox="0 0 150 151" fill="none" xmlns="http://www.w3.org/2000/svg">
<circle cx="75" cy="75.6602" r="73" stroke="#2EB4E8" stroke-width="4"/>
<path d="M100.002 58.3156C99.8149 58.3156 99.5969 58.2533 99.4411 58.0975L92.0908 50.7472C91.7793 50.4357 91.7793 49.9374 92.0908 49.6571C92.4022 49.3456 92.9006 49.3456 93.1809 49.6571L100.002 56.478L117.101 39.3479C117.412 39.0364 117.911 39.0364 118.191 39.3479C118.502 39.6593 118.502 40.1576 118.191 40.4379L100.531 58.0975C100.531 58.0975 100.189 58.3156 99.9706 58.3156H100.002Z" fill="#2EB4E8"/>
<path d="M99.6905 73.3593C99.6905 73.3593 99.4413 73.3593 99.3479 73.2658C82.4669 64.9811 81.0342 56.7898 80.9719 56.416C80.9719 56.3849 80.9719 56.3537 80.9719 56.2914V36.2336C80.9719 35.7976 81.3145 35.455 81.7506 35.455C89.4435 35.455 99.1298 27.6374 99.2233 27.5751C99.5036 27.3571 99.9085 27.3571 100.22 27.5751C100.313 27.6686 110 35.455 117.693 35.455C118.129 35.455 118.471 35.7976 118.471 36.2336V39.9088C118.471 40.3449 118.129 40.6875 117.693 40.6875C117.257 40.6875 116.914 40.3449 116.914 39.9088V37.0123C109.782 36.6074 101.808 30.7831 99.7216 29.1947C97.6349 30.752 89.6616 36.5762 82.5292 36.9811V56.2291C82.6538 56.8521 84.5848 64.2024 99.7216 71.7085C114.952 64.1401 116.758 56.8832 116.914 56.2291V52.5851C116.914 52.1491 117.257 51.8065 117.693 51.8065C118.129 51.8065 118.471 52.1491 118.471 52.5851V56.3226C118.471 56.3226 118.471 56.3849 118.471 56.4472C118.409 56.7898 117.007 65.0122 100.095 73.297C100.002 73.3593 99.8773 73.3904 99.7528 73.3904L99.6905 73.3593Z" fill="#2EB4E8"/>
<path d="M58.1535 53.6698C52.2589 53.6698 47.5 47.8293 47.5 40.6909C47.5 33.5525 52.2589 27.7661 58.1535 27.7661C64.048 27.7661 68.807 33.6066 68.807 40.745C68.807 47.8833 64.048 53.7238 58.1535 53.7238V53.6698ZM58.1535 30.47C53.7731 30.47 50.2039 35.0667 50.2039 40.745C50.2039 46.4232 53.7731 51.0199 58.1535 51.0199C62.5338 51.0199 66.103 46.4232 66.103 40.745C66.103 35.0667 62.5338 30.47 58.1535 30.47Z" fill="#2EB4E8"/>
<path d="M69.3477 95.3102C68.8069 95.3102 68.3202 94.9857 68.1039 94.445C67.8335 93.7419 68.1579 92.9848 68.861 92.7144C73.9444 90.7135 77.2432 85.8465 77.2432 80.3304V73.5165C77.2432 66.1619 71.2945 60.2132 63.9398 60.2132H52.3129C44.9582 60.2132 39.0096 66.1619 39.0096 73.5165V80.3304C39.0096 85.7924 42.3084 90.6595 47.3918 92.7144C48.0948 92.9848 48.4193 93.796 48.1489 94.445C47.8785 95.148 47.0673 95.4724 46.4184 95.2021C40.2534 92.7685 36.3057 86.928 36.3057 80.3304V73.5165C36.3057 64.7017 43.4981 57.5093 52.3129 57.5093H63.9939C72.8087 57.5093 80.0012 64.7017 80.0012 73.5165V80.3304C80.0012 86.928 76.0534 92.7685 69.8885 95.2021C69.7262 95.2561 69.564 95.3102 69.4018 95.3102H69.3477Z" fill="#2EB4E8"/>
<path d="M58.1535 122.079C57.3964 122.079 56.8015 121.484 56.8015 120.727V93.9584C56.8015 93.2013 57.3964 92.6064 58.1535 92.6064C58.9106 92.6064 59.5054 93.2013 59.5054 93.9584V120.727C59.5054 121.484 58.9106 122.079 58.1535 122.079Z" fill="#2EB4E8"/>
<path d="M53.0701 124.351C50.2581 124.351 47.7704 122.945 46.3644 121.809C46.0399 121.539 45.8777 121.16 45.8777 120.782V71.2997C45.8777 70.5426 46.4725 69.9478 47.2297 69.9478C47.9868 69.9478 48.5816 70.5426 48.5816 71.2997V120.133C49.8795 121.052 53.7732 123.215 57.1801 119.862C57.7209 119.321 58.5862 119.321 59.0729 119.862C62.4798 123.269 66.3194 121.052 67.6714 120.133V71.2997C67.6714 70.5426 68.2662 69.9478 69.0233 69.9478C69.7804 69.9478 70.3753 70.5426 70.3753 71.2997V120.782C70.3753 121.16 70.213 121.539 69.8886 121.809C67.7254 123.702 62.588 126.081 58.1535 122.566C56.4771 123.864 54.7466 124.351 53.0701 124.351Z" fill="#2EB4E8"/>
</svg>
