<svg width="150" height="151" viewBox="0 0 150 151" fill="none" xmlns="http://www.w3.org/2000/svg">
<circle cx="75" cy="75.6602" r="73" stroke="#2EB4E8" stroke-width="4"/>
<path d="M75.1528 84.6818C75.1528 84.6818 74.6134 84.6219 74.3736 84.502L67.9003 80.7259C65.3829 79.2874 63.8245 76.5302 63.8245 73.6532V72.5743C56.7518 67.9591 57.0515 57.7696 57.0515 57.35C57.0515 56.5109 57.7708 55.8516 58.6099 55.9115C59.449 55.9115 60.1084 56.6308 60.0484 57.4699C60.0484 57.5898 59.7487 67.0001 66.0422 70.4765C66.5217 70.7162 66.8214 71.2557 66.8214 71.7951V73.7131C66.8214 75.5712 67.8404 77.3094 69.3988 78.2085L75.1528 81.5051L80.9069 78.2085C82.5252 77.3094 83.4842 75.5712 83.4842 73.7131V71.7951C83.4842 71.2557 83.7839 70.7762 84.2634 70.4765C90.5569 67.0001 90.2572 57.5898 90.2572 57.5298C90.2572 56.6907 90.8566 56.0314 91.6958 55.9714C92.5349 55.9714 93.1942 56.5708 93.2542 57.41C93.2542 57.8295 93.6138 68.019 86.4811 72.6342V73.7131C86.4811 76.6501 84.9228 79.3473 82.4054 80.7858L75.932 84.5619C75.932 84.5619 75.4525 84.7418 75.2128 84.7418L75.1528 84.6818Z" fill="#2EB4E8"/>
<path d="M67.5407 92.3541C67.1811 92.3541 66.7615 92.1743 66.4619 91.8746L59.3892 84.6221C59.0295 84.2624 58.8497 83.6631 59.0295 83.1836C60.6479 77.3696 64.0044 72.8742 64.1243 72.6944C64.6038 72.0351 65.5628 71.9152 66.2221 72.3947C66.8814 72.8742 67.0013 73.8332 66.5218 74.4925C66.5218 74.4925 63.7047 78.2686 62.1463 83.1236L67.6007 88.7578L74.1339 83.0637C74.6734 82.5842 75.5125 82.5842 76.1119 83.0637L82.6452 88.7578L88.0995 83.1236C86.5411 78.2686 83.784 74.4925 83.724 74.4925C83.2445 73.8332 83.3644 72.8742 84.0237 72.3947C84.6831 71.9152 85.6421 72.0351 86.1216 72.6944C86.2414 72.8742 89.598 77.3696 91.2163 83.1836C91.3362 83.723 91.2163 84.2624 90.8567 84.6221L83.784 91.8746C83.2445 92.414 82.3455 92.474 81.7461 91.9345L75.0929 86.1805L68.4398 91.9345C68.4398 91.9345 67.7805 92.2942 67.4808 92.2942L67.5407 92.3541Z" fill="#2EB4E8"/>
<path d="M35.8934 115.25C35.0542 115.25 34.3949 114.591 34.3949 113.752V95.8302C34.3949 91.0951 37.3918 86.9594 41.8272 85.4609L61.0674 78.9277C61.8466 78.6879 62.6857 79.1075 62.9854 79.8867C63.2251 80.6659 62.8056 81.505 62.0264 81.8047L42.7862 88.3379C39.5496 89.4168 37.3918 92.4737 37.3918 95.8902V113.812C37.3918 114.651 36.7325 115.31 35.8934 115.31V115.25Z" fill="#2EB4E8"/>
<path d="M114.412 115.251C113.573 115.251 112.914 114.591 112.914 113.752V95.8306C112.914 92.4141 110.756 89.3573 107.519 88.2784L88.2792 81.7451C87.5001 81.5054 87.0805 80.6063 87.3202 79.8271C87.56 79.0479 88.4591 78.6283 89.2383 78.8681L108.478 85.4014C112.914 86.8998 115.911 91.0955 115.911 95.7706V113.692C115.911 114.531 115.251 115.191 114.412 115.191V115.251Z" fill="#2EB4E8"/>
<path d="M68.6796 114.831C68.6796 114.831 68.4398 114.831 68.3199 114.831C67.5408 114.651 67.0013 113.812 67.2411 113.033L71.4967 95.231L68.6196 89.417C68.26 88.6977 68.5597 87.7986 69.279 87.439C69.9982 87.0794 70.8973 87.3791 71.2569 88.0983L74.3737 94.3918C74.5535 94.6915 74.5535 95.0512 74.4936 95.4108L70.1181 113.692C69.9383 114.351 69.3389 114.831 68.6796 114.831Z" fill="#2EB4E8"/>
<path d="M81.6262 114.831C80.9669 114.831 80.3076 114.351 80.1877 113.692L75.8122 95.4108C75.7523 95.0512 75.8122 94.6915 75.9321 94.3918L79.0489 88.0983C79.4085 87.3791 80.3076 87.0794 81.0268 87.439C81.7461 87.7986 82.0458 88.6977 81.6861 89.417L78.8091 95.231L83.0647 113.033C83.2445 113.812 82.765 114.651 81.9858 114.831C81.866 114.831 81.7461 114.831 81.6262 114.831Z" fill="#2EB4E8"/>
<path d="M91.7556 61.6054C90.9764 61.6054 90.3171 61.006 90.2572 60.2268C90.1972 59.3877 90.7966 58.6684 91.6358 58.6085C92.0553 58.6085 95.5317 58.069 95.8914 53.6336C96.0112 52.1351 95.7715 51.4159 95.4718 51.1761C95.1122 50.9364 94.2131 51.1761 93.8535 51.296C93.314 51.5358 92.6547 51.4159 92.1752 50.9963C91.7556 50.5768 91.5758 49.9174 91.8156 49.378C92.8945 46.8007 92.9544 45.0625 93.0143 42.2454C93.0143 41.7059 93.0143 41.1665 93.0143 40.627C93.0143 30.7972 84.9826 22.7655 75.0928 22.7655C65.203 22.7655 57.2313 30.7372 57.2313 40.627C57.1114 44.523 57.2313 46.3211 58.49 49.378C58.7297 49.9174 58.6098 50.5768 58.1303 51.0563C57.7108 51.4758 57.0515 51.5957 56.4521 51.356C56.0924 51.1761 55.1934 50.9963 54.8337 51.2361C54.534 51.4159 54.2943 52.1951 54.4142 53.6935C54.7738 58.3088 58.49 58.6684 58.6698 58.6684C59.5089 58.7283 60.1083 59.4476 60.0484 60.2867C59.9884 61.1259 59.2692 61.7253 58.43 61.6653C56.2123 61.4855 51.8968 59.6274 51.4772 53.9333C51.2974 51.4758 51.8368 49.7376 53.1555 48.7786C53.6949 48.419 54.2943 48.1792 54.8937 48.1193C54.2344 45.7817 54.1744 43.7438 54.2344 40.627C54.2344 29.1189 63.6446 19.7686 75.1528 19.7686C86.6609 19.7686 96.0712 29.1788 96.0712 40.687C96.0712 41.2863 96.0712 41.8258 96.0712 42.3652C96.0712 44.523 95.9513 46.2013 95.4718 48.1792C96.0712 48.2392 96.6706 48.419 97.21 48.8386C98.5286 49.7976 99.128 51.4758 98.8883 53.9932C98.4088 59.6874 94.0932 61.5454 91.9355 61.7253C91.9355 61.7253 91.8755 61.7253 91.8156 61.7253L91.7556 61.6054Z" fill="#2EB4E8"/>
<path d="M87.3802 51.7157C69.5786 51.7157 63.9444 37.8101 63.8845 37.6902C63.5848 36.911 63.9444 36.0719 64.7236 35.7722C65.5028 35.4725 66.3419 35.8321 66.6416 36.6113C66.8214 37.0908 71.6764 48.7787 87.3203 48.7787C88.1594 48.7787 88.8187 49.4381 88.8187 50.2772C88.8187 51.1163 88.1594 51.7756 87.3203 51.7756L87.3802 51.7157Z" fill="#2EB4E8"/>
</svg>
