<svg width="150" height="151" viewBox="0 0 150 151" fill="none" xmlns="http://www.w3.org/2000/svg">
<path d="M43.1681 55.682C38.5724 55.682 34.7911 51.9007 34.7911 47.305V42.4766C34.7911 37.8809 38.5724 34.0996 43.1681 34.0996C47.7638 34.0996 51.5451 37.8809 51.5451 42.4766V47.305C51.5451 51.9007 47.7638 55.682 43.1681 55.682ZM43.1681 37.0083C40.1431 37.0083 37.6998 39.4516 37.6998 42.4766V47.305C37.6998 50.33 40.1431 52.7733 43.1681 52.7733C46.1931 52.7733 48.6364 50.33 48.6364 47.305V42.4766C48.6364 39.4516 46.1931 37.0083 43.1681 37.0083Z" fill="#2EB4E8"/>
<path d="M52.3013 115.194H34.5003C33.6858 115.194 33.0459 114.554 33.0459 113.739V91.7497C27.5195 91.1098 25.7743 86.7468 25.5997 84.3617V70.4C25.5997 62.7211 31.8243 56.4966 39.5032 56.4966H74.5818C74.989 56.4966 75.3962 56.6711 75.6871 56.962C75.9779 57.2528 76.0943 57.6601 76.0361 58.0673C75.6289 61.7322 72.8366 68.5967 65.3322 68.5967H53.7557V113.681C53.7557 114.496 53.1158 115.135 52.3013 115.135V115.194ZM35.8964 112.285H50.847V67.2005C50.847 66.7933 51.0215 66.4442 51.2542 66.1534C51.5451 65.8625 51.8941 65.7462 52.3013 65.7462H65.3322C70.2188 65.7462 72.1385 61.7322 72.7784 59.4053H39.5032C33.4531 59.4053 28.5084 64.35 28.5084 70.4V84.3035C28.5084 84.6525 28.9738 88.1429 33.0459 88.841V71.4472C33.0459 70.6327 33.6858 69.9928 34.5003 69.9928C35.3147 69.9928 35.9546 70.6327 35.9546 71.4472V112.285H35.8964Z" fill="#2EB4E8"/>
<path d="M43.1681 115.194C42.3537 115.194 41.7137 114.554 41.7137 113.739V88.8992C41.7137 88.0847 42.3537 87.4448 43.1681 87.4448C43.9825 87.4448 44.6224 88.0847 44.6224 88.8992V113.739C44.6224 114.554 43.9825 115.194 43.1681 115.194Z" fill="#2EB4E8"/>
<path d="M105.937 55.682C101.342 55.682 97.5604 51.9007 97.5604 47.305V42.4766C97.5604 37.8809 101.342 34.0996 105.937 34.0996C110.533 34.0996 114.314 37.8809 114.314 42.4766V47.305C114.314 51.9007 110.533 55.682 105.937 55.682ZM105.937 37.0083C102.912 37.0083 100.469 39.4516 100.469 42.4766V47.305C100.469 50.33 102.912 52.7733 105.937 52.7733C108.962 52.7733 111.406 50.33 111.406 47.305V42.4766C111.406 39.4516 108.962 37.0083 105.937 37.0083Z" fill="#2EB4E8"/>
<path d="M114.663 115.194H96.8041C95.9897 115.194 95.3498 114.554 95.3498 113.739V68.6548H83.7733C76.2689 68.6548 73.4766 61.7903 73.0693 58.1254C73.0693 57.7182 73.1275 57.3109 73.4184 57.0201C73.7092 56.7292 74.1165 56.5547 74.5237 56.5547H109.602C117.281 56.5547 123.506 62.7792 123.506 70.4581V84.3616C123.331 86.8631 121.586 91.1679 116.06 91.866V113.856C116.06 114.67 115.42 115.31 114.605 115.31L114.663 115.194ZM98.2584 112.285H113.209V71.4471C113.209 70.6327 113.849 69.9928 114.663 69.9928C115.478 69.9928 116.118 70.6327 116.118 71.4471V88.841C120.19 88.1429 120.597 84.6525 120.655 84.1871V70.4C120.655 64.3499 115.71 59.4052 109.66 59.4052H76.3852C77.0833 61.7321 78.9449 65.7461 83.8314 65.7461H96.8623C97.2695 65.7461 97.6185 65.9206 97.9094 66.1533C98.2003 66.4442 98.3166 66.7932 98.3166 67.2004V112.285H98.2584Z" fill="#2EB4E8"/>
<path d="M105.937 115.194C105.123 115.194 104.483 114.554 104.483 113.739V88.8992C104.483 88.0847 105.123 87.4448 105.937 87.4448C106.752 87.4448 107.392 88.0847 107.392 88.8992V113.739C107.392 114.554 106.752 115.194 105.937 115.194Z" fill="#2EB4E8"/>
<circle cx="75" cy="75.6602" r="73" stroke="#2EB4E8" stroke-width="4"/>
</svg>
