<svg width="150" height="151" viewBox="0 0 150 151" fill="none" xmlns="http://www.w3.org/2000/svg">
<circle cx="75" cy="75.6602" r="73" stroke="#2EB4E8" stroke-width="4"/>
<path d="M28.6772 85.271C28.6772 85.271 28.0727 85.2038 27.8712 85.0695L18.602 79.696C18.199 79.4945 17.9303 79.0915 17.796 78.6885C17.6617 78.2855 17.796 77.8153 17.9303 77.4123L38.0136 42.8207C38.4838 42.0147 39.4913 41.746 40.2973 42.2162L49.4994 47.5225C49.9024 47.724 50.171 48.127 50.3054 48.53C50.4397 48.933 50.3054 49.4032 50.171 49.8062L30.1549 84.3978C29.8191 84.9352 29.2818 85.2038 28.6772 85.2038V85.271ZM21.7589 77.681L28.0727 81.3081L46.3425 49.6047L40.0287 45.9776L21.7589 77.681Z" fill="#2EB4E8"/>
<path d="M120.765 85.0022C120.765 85.0022 120.496 85.0022 120.362 85.0022C119.959 84.8678 119.556 84.5992 119.354 84.1961L99.338 49.6046C98.8679 48.7985 99.1365 47.791 99.9426 47.3208L109.145 41.9474C109.548 41.7459 110.018 41.6787 110.421 41.8131C110.824 41.9474 111.227 42.2161 111.428 42.6191L131.377 77.2107C131.847 78.0167 131.579 79.0242 130.773 79.4944L121.571 84.8007C121.571 84.8007 121.033 85.0022 120.765 85.0022ZM103.099 49.3359L121.369 81.0392L127.683 77.4122L109.346 45.7088L103.032 49.3359H103.099Z" fill="#2EB4E8"/>
<path d="M42.7825 96.4211C41.3719 96.4211 39.9614 95.9509 38.8867 95.0105C36.2 92.8612 35.797 88.8983 37.9464 86.2115L39.4912 84.3308C41.6406 81.6441 45.6035 81.2411 48.2903 83.3905C50.977 85.5398 51.38 89.5028 49.2306 92.1895L47.6857 94.0702C46.6111 95.3464 45.1334 96.1524 43.4542 96.3539C43.2527 96.3539 42.984 96.3539 42.7825 96.3539V96.4211ZM44.3273 85.4055C43.4542 85.4055 42.6481 85.7413 42.0436 86.4802L40.4988 88.3609C39.4912 89.6371 39.6927 91.4506 40.9018 92.4582C41.5063 92.9283 42.2451 93.197 43.0511 93.0627C43.79 92.9955 44.5288 92.5925 44.999 91.988L46.5439 90.1073C47.5514 88.8311 47.3499 87.0175 46.1409 86.01C45.6035 85.607 44.9319 85.3383 44.3273 85.3383V85.4055Z" fill="#2EB4E8"/>
<path d="M49.6337 102.533C48.2232 102.533 46.8127 102.063 45.738 101.123C44.4618 100.048 43.6558 98.5703 43.4543 96.8911C43.2528 95.2119 43.7901 93.5999 44.7976 92.3237L51.4473 84.1292C53.5967 81.4424 57.5596 81.0394 60.2463 83.1888C61.5225 84.2635 62.3285 85.7412 62.53 87.4204C62.7315 89.0996 62.1942 90.7116 61.1867 91.9878L54.537 100.182C53.4623 101.459 51.9846 102.265 50.3054 102.466C50.1039 102.466 49.8352 102.466 49.6337 102.466V102.533ZM56.2834 85.1367C56.2834 85.1367 56.0819 85.1367 55.9475 85.1367C55.2087 85.2038 54.4698 85.6069 53.9997 86.2114L47.35 94.4059C46.8799 95.0104 46.6112 95.7492 46.7455 96.5553C46.8127 97.2941 47.2157 98.033 47.8202 98.5031C48.4247 98.9733 49.1636 99.242 49.9696 99.1076C50.7084 99.0405 51.4473 98.6375 51.9175 98.033L58.5671 89.8384C59.0373 89.2339 59.306 88.4951 59.1716 87.6891C59.0373 86.8831 58.7014 86.2114 58.0969 85.7412C57.5596 85.3382 56.9551 85.0695 56.2834 85.0695V85.1367Z" fill="#2EB4E8"/>
<path d="M56.4176 108.713C55.0071 108.713 53.6637 108.243 52.4547 107.302C49.768 105.153 49.365 101.19 51.5144 98.5032L56.955 91.7864C59.1044 89.0997 63.0673 88.6967 65.754 90.846C68.4407 92.9954 68.8437 96.9583 66.6944 99.6451L61.2537 106.362C60.0447 107.907 58.2312 108.646 56.3505 108.646L56.4176 108.713ZM54.6041 104.683C55.8131 105.69 57.6938 105.489 58.7014 104.28L64.142 97.5628C65.1495 96.2867 64.948 94.4731 63.739 93.4656C62.4628 92.4581 60.6492 92.6596 59.6417 93.8686L54.2011 100.585C53.1936 101.862 53.3951 103.675 54.6041 104.683Z" fill="#2EB4E8"/>
<path d="M63.6719 114.354C62.2613 114.354 60.8508 113.884 59.7761 112.944C57.0894 110.794 56.6864 106.832 58.8358 104.145L62.5972 99.5102C63.6719 98.234 65.1496 97.428 66.8288 97.2265C68.508 97.025 70.12 97.5623 71.3962 98.5699C74.0829 100.719 74.4859 104.682 72.3366 107.369L68.5752 112.003C67.5005 113.28 66.0228 114.086 64.3436 114.287C64.1421 114.287 63.8734 114.287 63.6719 114.287V114.354ZM67.4333 100.585C67.4333 100.585 67.2318 100.585 67.0975 100.585C66.3586 100.652 65.6198 101.055 65.1496 101.66L61.3882 106.294C60.918 106.899 60.6493 107.638 60.7837 108.444C60.8508 109.182 61.2538 109.921 61.8583 110.391C62.4629 110.862 63.2017 111.13 64.0077 110.996C64.7466 110.929 65.4854 110.526 65.9556 109.921L69.717 105.287C70.1872 104.682 70.4559 103.943 70.3215 103.137C70.2544 102.398 69.8513 101.66 69.2468 101.189C68.7095 100.786 68.105 100.518 67.4333 100.518V100.585Z" fill="#2EB4E8"/>
<path d="M79.9264 113.145C75.6277 113.145 71.2618 111.399 68.5079 109.787C67.7019 109.317 67.4332 108.309 67.9034 107.503C68.3735 106.697 69.3811 106.429 70.1871 106.899C70.6572 107.167 82.2102 113.884 86.8448 106.093C87.3149 105.287 88.3225 105.018 89.1285 105.488C89.9345 105.958 90.2032 106.966 89.733 107.772C87.3821 111.735 83.6879 113.145 79.9264 113.145Z" fill="#2EB4E8"/>
<path d="M90.6734 108.914C85.9716 108.914 78.3144 104.346 74.8217 102.13C74.0157 101.66 73.8142 100.585 74.2843 99.7788C74.7545 98.9728 75.8292 98.7713 76.6352 99.2415C83.0162 103.339 89.8674 106.227 91.2779 105.421C93.8974 103.876 93.8974 103.204 93.8974 101.055C93.8974 100.115 94.6363 99.3758 95.5766 99.3758C96.517 99.3758 97.2558 100.115 97.2558 101.055C97.2558 103.943 96.9872 105.958 92.9571 108.309C92.3526 108.645 91.5466 108.847 90.7405 108.847L90.6734 108.914Z" fill="#2EB4E8"/>
<path d="M40.2973 87.6217C39.8271 87.6217 39.2898 87.4202 38.9539 87.0172L31.4311 77.5465C30.8266 76.8077 30.9609 75.733 31.6998 75.1956C32.4386 74.5911 33.5133 74.7255 34.0507 75.4643L41.5735 84.935C42.178 85.6739 42.0437 86.7486 41.3048 87.2859C40.969 87.5546 40.6332 87.6217 40.2301 87.6217H40.2973Z" fill="#2EB4E8"/>
<path d="M96.8529 102.398C90.1361 102.398 80.7997 94.4052 79.5907 93.3977C78.919 92.7931 78.8519 91.7184 79.4564 91.0468C80.0609 90.3751 81.1356 90.3079 81.8073 90.9124C86.6434 95.144 94.8379 100.383 98.1291 98.8383C99.674 98.1666 100.01 95.6814 100.01 93.6663C100.01 92.726 100.749 91.9871 101.689 91.9871C102.629 91.9871 103.368 92.726 103.368 93.6663C103.368 97.9651 102.092 100.719 99.5396 101.861C98.7336 102.264 97.7933 102.398 96.8529 102.398Z" fill="#2EB4E8"/>
<path d="M105.316 96.0854C98.8007 96.0854 87.9195 87.8237 84.1581 84.8683C83.4192 84.2638 83.2849 83.2563 83.8894 82.5174C84.4939 81.7786 85.5014 81.6442 86.2403 82.2488C94.2333 88.6297 104.443 94.4062 106.324 92.5255C106.324 92.5255 106.391 92.4583 106.458 92.3911C106.458 92.3911 108.204 90.9134 108.07 88.9656C107.936 87.152 106.122 85.137 102.831 83.2563C93.2258 77.6813 78.1801 67.7404 74.8889 65.5911L71.3289 66.5314C70.1199 68.2106 66.0227 73.1139 59.2387 74.1886C57.6267 74.4572 56.0146 73.8527 54.9399 72.5765C53.8652 71.3003 53.5966 69.6211 54.1339 68.0763C55.3429 64.6507 57.9625 59.2773 63.8733 53.4336C64.2763 53.0978 71.3961 47.0527 89.8002 51.3514C91.4122 51.6873 92.8899 52.0903 94.1661 52.4261C97.9275 53.4336 100.01 54.0381 102.898 52.4261C103.704 51.9559 104.712 52.2246 105.182 53.0306C105.652 53.8366 105.383 54.8442 104.577 55.3143C100.547 57.6652 97.323 56.792 93.2929 55.7173C92.0839 55.3815 90.6734 54.9785 89.1285 54.7098C72.6723 50.8812 66.2913 55.9188 66.2242 55.986C60.8507 61.3595 58.4327 66.1956 57.358 69.2853C57.1565 69.8898 57.4251 70.36 57.5595 70.5615C57.6938 70.6958 58.0968 71.0988 58.7013 70.9645C65.2838 69.8898 68.8437 64.3149 68.9109 64.2477C69.1124 63.9118 69.5154 63.6432 69.9184 63.5088L74.8217 62.2326C75.2919 62.0983 75.762 62.2326 76.1651 62.4342C76.3666 62.5685 93.8303 74.2557 104.51 80.368C108.876 82.8533 111.16 85.6743 111.361 88.7641C111.63 92.1896 109.077 94.5405 108.607 94.9435C107.734 95.7495 106.592 96.0854 105.249 96.0854H105.316Z" fill="#2EB4E8"/>
<path d="M108.406 87.2857C107.801 87.2857 107.264 87.0171 106.928 86.4797C106.458 85.6737 106.727 84.6662 107.533 84.196C108.07 83.8602 113.511 79.6286 116.802 77.0762C117.541 76.5388 118.615 76.606 119.153 77.3448C119.69 78.0837 119.623 79.1584 118.884 79.6957C114.787 82.9198 109.749 86.8156 109.212 87.0842C108.943 87.2186 108.675 87.2857 108.406 87.2857Z" fill="#2EB4E8"/>
<path d="M60.8507 59.8142C53.7309 59.8142 45.9394 54.2392 45.6036 53.9706C44.8647 53.4332 44.6632 52.3585 45.2677 51.6197C45.8051 50.8808 46.8798 50.6793 47.6186 51.2167C47.6858 51.2167 55.6788 56.9931 61.8582 56.3886C62.7986 56.3215 63.6046 56.9931 63.6718 57.8663C63.739 58.8067 63.0673 59.6127 62.1941 59.6799C61.7911 59.6799 61.3209 59.6799 60.9179 59.6799L60.8507 59.8142Z" fill="#2EB4E8"/>
</svg>
