<svg width="150" height="151" viewBox="0 0 150 151" fill="none" xmlns="http://www.w3.org/2000/svg">
<path d="M49.8483 122.893C49.8483 122.893 49.5505 122.893 49.4315 122.893C48.2405 122.774 47.8237 122.119 47.7046 121.643C47.5855 121.107 47.4664 120.214 47.3473 118.308C47.2282 116.581 46.9304 113.127 46.5731 112.175C39.1296 107.173 26.8031 98.7763 26.029 97.1685C25.3144 95.6798 24.3616 80.495 23.8853 71.6223C23.8853 71.5032 23.8853 71.4436 23.8853 71.3245C24.1234 69.4785 26.029 68.1685 28.6491 67.9898C31.031 67.8112 33.7703 68.7044 34.4253 71.1459C34.8421 72.6941 35.1994 77.0412 35.4972 81.6264C35.7354 85.1397 36.0926 89.9631 36.3904 91.035C38.1768 93.0596 44.7867 98.4785 46.6327 97.8831C47.5855 97.5853 48.1809 97.3471 48.5382 97.1685C48.0618 96.8707 47.4068 96.4539 46.8113 96.0966C41.0351 92.5833 38.0577 90.4991 37.6409 88.4744C36.8668 84.4847 36.569 81.9241 37.5218 80.5545C37.8791 80.0186 38.415 79.6613 39.0105 79.6017C39.0105 79.6017 39.0701 79.6017 39.1296 79.6017C42.4048 79.6017 65.4499 97.1089 66.2241 98.8358C66.5813 99.61 70.7497 116.343 69.4992 118.487C68.3082 120.63 53.2425 122.953 49.8483 122.953V122.893ZM28.7087 95.7989C30.3165 97.4662 42.2261 105.624 48.4787 109.793C49.5506 110.507 49.8483 112.294 50.3247 118.01C50.3247 118.665 50.4438 119.38 50.5033 119.916C53.7189 119.856 64.3185 117.832 66.8791 116.76C66.8195 113.842 64.3781 101.694 63.6039 99.9077C62.2939 98.0617 44.4889 85.1993 40.0228 82.7578C40.0228 83.7106 40.2015 85.3779 40.6779 87.7599C41.0947 88.9508 46.454 92.226 48.4787 93.4169C50.682 94.727 51.2774 95.1438 51.5752 95.6202C52.0516 96.2752 52.1111 97.0494 51.8729 97.764C51.4561 98.9549 50.146 99.8481 47.5855 100.622C42.8811 101.992 34.1276 92.7619 34.068 92.7024C33.413 91.9282 33.2343 90.38 32.5793 81.7455C32.2816 77.6962 31.9838 73.1705 31.6265 71.8605C31.4479 71.3245 30.4951 70.9077 29.3041 70.9077C27.9941 70.9077 27.1009 71.3841 26.9222 71.6223C27.5177 82.1623 28.3514 93.8933 28.7682 95.7989H28.7087Z" fill="#2EB4E8"/>
<path d="M39.3084 82.4599C38.5343 82.4599 37.8792 81.8644 37.8197 81.0307C37.7006 78.8274 37.4029 75.4332 37.1051 74.1827C36.5096 74.0636 35.2591 74.3018 34.9018 74.6591C34.9018 75.4332 34.3659 76.0287 33.5918 76.1478C32.7581 76.2073 32.0435 75.6714 31.9244 74.8377C31.7458 73.2299 33.0558 71.8007 35.2591 71.3244C37.5219 70.848 39.3679 71.503 39.8443 72.9322C40.3803 74.54 40.678 79.7802 40.7376 80.7925C40.7376 81.6262 40.1421 82.3408 39.3084 82.3408C39.3084 82.3408 39.3084 82.3408 39.2488 82.3408L39.3084 82.4599Z" fill="#2EB4E8"/>
<path d="M100.464 122.893C97.1891 122.893 81.9447 120.511 80.7537 118.427C79.5032 116.224 83.6716 99.5505 84.0289 98.7763C84.803 97.0494 108.444 79.1254 111.242 79.5423C111.838 79.6614 112.374 80.0186 112.731 80.495C113.684 81.8646 113.386 84.4848 112.612 88.4149C112.195 90.4396 109.218 92.5238 103.442 96.0371C102.846 96.3944 102.191 96.8112 101.715 97.109C102.072 97.2876 102.668 97.5258 103.62 97.8236C105.526 98.3595 112.076 93.0002 113.863 90.9755C114.16 89.9037 114.518 85.0802 114.756 81.5669C115.113 76.9817 115.411 72.6942 115.828 71.146C116.483 68.764 119.222 67.8708 121.604 67.9899C124.284 68.1686 126.129 69.4786 126.368 71.3246C126.368 71.4437 126.368 71.5033 126.368 71.6223C125.891 80.5546 124.939 95.7394 124.224 97.1685C123.45 98.7763 111.123 107.173 103.68 112.175C103.323 113.127 103.084 116.581 102.906 118.308C102.787 120.214 102.667 121.107 102.548 121.643C102.429 122.119 102.012 122.774 100.822 122.893C100.702 122.893 100.583 122.893 100.405 122.893H100.464ZM83.4334 116.819C86.0535 117.891 96.6531 119.916 99.8092 119.976C99.8092 119.44 99.9283 118.725 99.9878 118.07C100.405 112.353 100.702 110.567 101.834 109.852C108.086 105.684 120.115 97.4067 121.604 95.8585C121.961 94.2507 122.795 82.4006 123.45 71.7414C123.271 71.5033 122.378 71.0269 121.068 71.0269C119.877 71.0269 118.865 71.4437 118.746 71.9796C118.388 73.2302 118.09 77.8154 117.793 81.8646C117.138 90.4991 116.959 92.0474 116.304 92.8215C116.244 92.9406 107.491 102.171 102.787 100.741C100.286 99.9673 98.9755 99.1336 98.4991 97.8831C98.2609 97.1685 98.3205 96.3944 98.7969 95.7394C99.0946 95.263 99.6901 94.9057 101.893 93.5361C103.918 92.3451 109.218 89.07 109.694 87.8195C110.171 85.4375 110.409 83.7702 110.349 82.8174C105.824 85.2589 88.0186 98.1213 86.7086 100.086C85.994 101.754 83.5525 113.902 83.493 116.819H83.4334ZM83.0166 116.641L121.663 95.7394L83.0166 116.641Z" fill="#2EB4E8"/>
<path d="M110.945 82.4604C110.945 82.4604 110.945 82.4604 110.885 82.4604C110.051 82.4604 109.456 81.6863 109.456 80.9121C109.456 79.8998 109.813 74.6596 110.349 73.0518C110.825 71.5631 112.671 70.908 114.934 71.444C117.138 71.9203 118.448 73.29 118.269 74.9573C118.15 75.791 117.435 76.3269 116.602 76.2674C115.827 76.1483 115.292 75.5528 115.292 74.7787C114.934 74.4214 113.684 74.1832 113.088 74.3023C112.791 75.5528 112.552 78.8875 112.374 81.1503C112.374 81.9245 111.659 82.5795 110.885 82.5795L110.945 82.4604Z" fill="#2EB4E8"/>
<path d="M73.4888 84.6037C73.1315 84.6037 72.8338 84.4846 72.5361 84.3059C71.4642 83.4723 46.8112 63.5236 43.0597 51.6735C41.035 46.2546 41.571 39.5257 44.5484 34.6427C46.9899 30.5934 50.8605 28.1519 55.6244 27.5565C64.8543 26.425 70.9878 32.2012 73.4888 35.1786C75.9899 32.2012 82.0638 26.425 91.3533 27.5565C96.1172 28.1519 99.9878 30.5934 102.429 34.6427C105.407 39.5257 105.943 46.1951 103.858 51.733C100.166 63.5236 75.4539 83.4127 74.4416 84.2464C74.1439 84.4846 73.8461 84.5441 73.4888 84.5441V84.6037ZM57.9467 30.4148C57.2917 30.4148 56.6962 30.4148 55.9817 30.5339C51.0987 31.1294 48.4786 33.9281 47.109 36.191C44.6675 40.2402 44.1911 46.076 45.918 50.7207C49.0145 60.5462 68.9036 77.4579 73.4888 81.2094C78.074 77.4579 97.9632 60.5462 101.06 50.7803C102.846 46.076 102.31 40.2402 99.8687 36.191C98.4991 33.9281 95.8194 31.1294 90.996 30.5339C80.7537 29.2834 75.0371 38.156 74.7393 38.5133C74.4416 38.9302 73.9652 39.2279 73.4888 39.2279C72.9529 39.2279 72.5361 38.9897 72.2383 38.5133C72.0001 38.156 66.9385 30.4148 57.9467 30.4148Z" fill="#2EB4E8"/>
<circle cx="75" cy="75.6602" r="73" stroke="#2EB4E8" stroke-width="4"/>
</svg>
