<svg width="28" height="28" viewBox="0 0 28 28" fill="none" xmlns="http://www.w3.org/2000/svg">
<path d="M0.672099 27.3337L2.47477 20.7097C1.28695 18.6735 0.662894 16.3576 0.666766 14.0003C0.666766 6.63633 6.6361 0.666992 14.0001 0.666992C21.3641 0.666992 27.3334 6.63633 27.3334 14.0003C27.3334 21.3643 21.3641 27.3337 14.0001 27.3337C11.6438 27.3375 9.32897 26.7139 7.29343 25.527L0.672099 27.3337ZM9.1881 7.74433C9.01592 7.75502 8.84766 7.80037 8.69343 7.87766C8.54879 7.95957 8.41676 8.06196 8.30143 8.18166C8.14143 8.33233 8.05077 8.46299 7.95343 8.58966C7.46065 9.23099 7.19558 10.0182 7.2001 10.827C7.20277 11.4803 7.37343 12.1163 7.6401 12.711C8.18543 13.9137 9.08277 15.187 10.2681 16.367C10.5534 16.651 10.8321 16.9363 11.1321 17.2017C12.6033 18.4969 14.3564 19.431 16.2521 19.9297L17.0108 20.0457C17.2574 20.059 17.5041 20.0403 17.7521 20.0283C18.1404 20.0083 18.5196 19.9031 18.8628 19.7203C19.0374 19.6304 19.2078 19.5325 19.3734 19.427C19.3734 19.427 19.4308 19.3897 19.5401 19.307C19.7201 19.1737 19.8308 19.079 19.9801 18.923C20.0908 18.8083 20.1868 18.6737 20.2601 18.5203C20.3641 18.303 20.4681 17.8883 20.5108 17.543C20.5428 17.279 20.5334 17.135 20.5294 17.0457C20.5241 16.903 20.4054 16.755 20.2761 16.6923L19.5001 16.3443C19.5001 16.3443 18.3401 15.839 17.6321 15.5163C17.5575 15.4838 17.4775 15.4653 17.3961 15.4617C17.3049 15.4523 17.2127 15.4626 17.1258 15.4918C17.0388 15.521 16.9592 15.5684 16.8921 15.631V15.6283C16.8854 15.6283 16.7961 15.7043 15.8321 16.8723C15.7768 16.9467 15.7006 17.0029 15.6132 17.0337C15.5258 17.0646 15.4312 17.0688 15.3414 17.0457C15.2546 17.0224 15.1695 16.993 15.0868 16.9577C14.9214 16.8883 14.8641 16.8617 14.7508 16.8123L14.7441 16.8097C13.9813 16.4766 13.2751 16.0268 12.6508 15.4763C12.4828 15.3297 12.3268 15.1697 12.1668 15.015C11.6422 14.5126 11.1851 13.9443 10.8068 13.3243L10.7281 13.1977C10.6716 13.1125 10.6259 13.0207 10.5921 12.9243C10.5414 12.7283 10.6734 12.571 10.6734 12.571C10.6734 12.571 10.9974 12.2163 11.1481 12.0243C11.2736 11.8648 11.3906 11.6988 11.4988 11.527C11.6561 11.2737 11.7054 11.0137 11.6228 10.8123C11.2494 9.90033 10.8628 8.99233 10.4654 8.09099C10.3868 7.91233 10.1534 7.78433 9.94143 7.75899C9.86943 7.75099 9.79743 7.74299 9.72543 7.73766C9.54637 7.72876 9.36695 7.73188 9.1881 7.74433Z" fill="white"/>
</svg>
